<?xml version="1.0" encoding="UTF-8"?>
<svg width="16px" height="16px" viewBox="0 0 16 16" version="1.1" xmlns="http://www.w3.org/2000/svg" xmlns:xlink="http://www.w3.org/1999/xlink">
    <title>icon-data</title>
    <g id="中移-2-0926" stroke="none" stroke-width="1">
        <g id="切图补充" transform="translate(-79.000000, -75.000000)">
            <g id="data" transform="translate(79.000000, 75.000000)">
                <path d="M5.91006869,1.64764012 C6.01583852,1.90272316 5.89479625,2.1952522 5.63971321,2.30102203 C4.8917609,2.61115941 4.21210436,3.06690886 3.63950526,3.63950486 C2.49017272,4.78882787 1.83333333,6.34177188 1.83333333,8 C1.83333333,11.4057576 4.59424237,14.1666667 8,14.1666667 C9.65819541,14.1666667 11.211139,13.5098209 12.3604895,12.3604703 C12.9330666,11.7879243 13.3888261,11.1082481 13.6989641,10.3602882 C13.8047331,10.1052048 14.0972618,9.98416167 14.3523452,10.0899307 C14.6074285,10.1956998 14.7284717,10.4882285 14.6227026,10.7433118 C14.2621201,11.6129289 13.7325901,12.4026195 13.0675867,13.0675867 C11.7325693,14.4026041 9.92613919,15.1666667 8,15.1666667 C4.04195763,15.1666667 0.833333333,11.9580424 0.833333333,8 C0.833333333,6.07382877 1.59738922,4.26739627 2.9324009,2.93239565 C3.59742133,2.26737883 4.38708249,1.73786486 5.25668679,1.37728464 C5.51176982,1.27151481 5.80429887,1.39255709 5.91006869,1.64764012 Z M8,0.833333333 C11.9580424,0.833333333 15.1666667,4.04195763 15.1666667,8 C15.1666667,8.25313051 14.9785641,8.46232731 14.7345137,8.49543559 L14.6666667,8.5 L8,8.5 C7.74686949,8.5 7.53767269,8.31189741 7.50456441,8.06784704 L7.5,8 L7.5,1.33333333 C7.5,1.05719096 7.72385763,0.833333333 8,0.833333333 Z M8.5,1.85333333 L8.5,7.5 L14.146,7.5 L14.1440313,7.46791616 C13.8943415,4.54626321 11.6075493,2.20603173 8.71022195,1.87378899 L8.53208384,1.85596867 L8.5,1.85333333 Z" id="形状"></path>
            </g>
        </g>
    </g>
</svg>