<?xml version="1.0" encoding="UTF-8"?>
<svg width="17px" height="16px" viewBox="0 0 17 16" version="1.1" xmlns="http://www.w3.org/2000/svg" xmlns:xlink="http://www.w3.org/1999/xlink">
    <title>icon-data</title>
    <g id="中移-2-0926" stroke="none" stroke-width="1">
        <g id="切图补充" transform="translate(-114.000000, -75.000000)">
            <g id="团队" transform="translate(114.500000, 75.000000)">
                <path d="M7.66793517,8.83428699 L8.02335269,8.8378427 L8.48531935,8.84986659 L8.75160446,8.86336105 L8.98913314,8.88205301 L9.09834534,8.89356626 L9.09834534,8.89356626 L9.20184626,8.90664074 L9.39368468,8.93782253 L9.52623516,8.96595628 L9.52623516,8.96595628 L9.65092292,8.99848657 L9.80781593,9.04920849 C9.90961285,9.0859582 10.0066887,9.12873328 10.1042979,9.17846476 C10.7001435,9.48206775 11.1845989,9.96652315 11.4882086,10.5623819 L11.5190076,10.6242818 L11.5750821,10.746812 L11.6241697,10.8703289 L11.666724,10.9980483 L11.6856929,11.0644888 L11.6856929,11.0644888 L11.7031985,11.1331858 L11.7340468,11.2789571 L11.7475028,11.3568353 L11.7707621,11.5245865 L11.789529,11.7110107 L11.804257,11.9193233 L11.8153997,12.1527402 L11.8234106,12.4144769 L11.8287431,12.7077491 L11.8327123,13.2138206 L11.8333333,14 C11.8333333,14.2531305 11.6452307,14.4623273 11.4011804,14.4954356 L11.3333333,14.5 L1.33333333,14.5 C1.08014713,14.5 0.870996743,14.3118177 0.837896583,14.0677073 L0.833333333,13.9998444 L0.833585352,13.19215 L0.837842967,12.6433125 L0.849867492,12.1813448 L0.863362621,11.9150591 L0.882055453,11.6775302 L0.893569226,11.5683179 L0.893569226,11.5683179 L0.906644286,11.4648171 L0.937827416,11.2729791 L0.965962341,11.1404291 L0.965962341,11.1404291 L0.998493945,11.0157422 L1.04921787,10.8588507 C1.08596901,10.757055 1.12874571,10.6599807 1.17847903,10.5623735 C1.48207786,9.96652048 1.96652013,9.48206589 2.56237738,9.17845697 L2.70904593,9.10896253 L2.70904593,9.10896253 L2.85885565,9.0492041 L3.01574736,8.99848342 L3.14043436,8.9659539 L3.14043436,8.9659539 L3.27298422,8.93782077 L3.46482203,8.90663963 L3.5683227,8.89356541 L3.5683227,8.89356541 L3.6775347,8.88205237 L3.91506308,8.86336072 L4.18134797,8.84986645 L4.64331434,8.83784269 L4.99873164,8.83428699 L7.66793517,8.83428699 Z M13.4375979,9.17846476 C14.0334435,9.48206775 14.5178989,9.96652315 14.8215086,10.5623819 L14.8546904,10.6292044 L14.9146325,10.7615185 C14.9239332,10.7835918 14.9328969,10.8057317 14.9415357,10.8280228 L14.9895631,10.9642576 C15.0338807,11.1036559 15.067355,11.2545701 15.0925566,11.4352288 L15.115096,11.6264775 L15.1326917,11.8416067 L15.145915,12.0846671 L15.1553372,12.3597096 L15.1635932,12.8411008 L15.1660123,13.2138206 L15.1666333,14 C15.1666333,14.2761424 14.9427757,14.5 14.6666333,14.5 C14.4135028,14.5 14.204306,14.3118974 14.1711977,14.067847 L14.1666333,14 L14.1660579,13.2416084 L14.1621263,12.7395949 L14.153398,12.3262988 L14.1442988,12.0939424 L14.1321445,11.8918464 L14.1073768,11.6374171 L14.1073768,11.6374171 L14.0859689,11.4949251 C14.0781288,11.4505353 14.0695641,11.4090494 14.0602132,11.3698559 L14.0297405,11.2585418 L13.9941815,11.1573149 L13.9420173,11.0393786 L13.9420173,11.0393786 L13.9304981,11.0163646 C13.7227678,10.6086769 13.3912898,10.2771989 12.9836021,10.0694686 C12.7375582,9.94410108 12.6397306,9.64301266 12.7650981,9.39696875 C12.8904656,9.15092484 13.191554,9.05309728 13.4375979,9.17846476 Z M7.6526668,9.83422706 L5.01484484,9.83422706 L4.53928566,9.83999911 L4.26953419,9.84758091 L4.03338109,9.85864696 L3.8271989,9.87362345 L3.64736017,9.89293657 C3.36756661,9.92897574 3.18242313,9.98486005 3.01635791,10.0694686 C2.60867937,10.2771942 2.27721534,10.6086667 2.06948669,11.0163617 C1.99897369,11.1547514 1.94840995,11.3063886 1.91265658,11.514963 L1.89294068,11.6472896 L1.87362622,11.827072 L1.86562202,11.9266071 L1.85265325,12.1472302 L1.84,12.5388413 L1.83547616,12.8456511 L1.83333333,13.5 L10.8326667,13.5 L10.8306738,12.9034498 L10.8241308,12.47679 L10.8124638,12.1249066 L10.8012946,11.9264517 L10.7870312,11.7531181 L10.7693469,11.6016607 L10.7591198,11.5331215 L10.7356914,11.4083939 L10.7080253,11.2974298 L10.6757946,11.1969842 L10.6386726,11.103812 L10.5971981,11.0163646 C10.3894678,10.6086769 10.0579898,10.2771989 9.65031527,10.0694753 C9.51192421,9.99896564 9.36028579,9.94840433 9.1517186,9.91265268 L9.01939738,9.89293774 L8.83962472,9.87362423 L8.74009598,9.86562041 L8.51948922,9.85265228 L8.12791258,9.83999967 L7.6526668,9.83422706 Z M6.33333333,1.5 C7.89814133,1.5 9.16666667,2.76852658 9.16666667,4.33333333 C9.16666667,5.89814237 7.89814237,7.16666667 6.33333333,7.16666667 C4.76852429,7.16666667 3.5,5.89814237 3.5,4.33333333 C3.5,2.76852658 4.76852533,1.5 6.33333333,1.5 Z M11.1272894,1.90507281 C11.9720568,2.41410255 12.5000333,3.32837296 12.5000333,4.33333333 C12.5000333,5.33829371 11.9720568,6.25256411 11.1272894,6.76159386 C10.8907676,6.90411428 10.5834932,6.82791113 10.4409728,6.59138937 C10.2984524,6.35486762 10.3746555,6.04759322 10.6111773,5.90507281 C11.1586757,5.57516787 11.5000333,4.98405592 11.5000333,4.33333333 C11.5000333,3.68261075 11.1586757,3.0914988 10.6111773,2.76159386 C10.3746555,2.61907344 10.2984524,2.31179905 10.4409728,2.07527729 C10.5834932,1.83875553 10.8907676,1.76255239 11.1272894,1.90507281 Z M6.33333333,2.5 C5.3208103,2.5 4.5,3.32081111 4.5,4.33333333 C4.5,5.34585763 5.32080904,6.16666667 6.33333333,6.16666667 C7.34585763,6.16666667 8.16666667,5.34585763 8.16666667,4.33333333 C8.16666667,3.32081111 7.34585636,2.5 6.33333333,2.5 Z" id="形状"></path>
            </g>
        </g>
    </g>
</svg>