<?xml version="1.0" encoding="UTF-8"?>
<svg width="272px" height="38px" viewBox="0 0 272 38" version="1.1" xmlns="http://www.w3.org/2000/svg" xmlns:xlink="http://www.w3.org/1999/xlink">
    <title>logo</title>
    <defs>
        <polygon id="path-1" points="0 27 270 27 270 0 0 0"></polygon>
    </defs>
    <g id="中移-2-0926" stroke="none" stroke-width="1" fill="none" fill-rule="evenodd">
        <g id="中移-首页_01-ok1" transform="translate(-128.000000, -17.000000)">
            <g id="编组-2" transform="translate(128.000000, 17.000000)">
                <g id="编组" transform="translate(0.000000, 5.500000)">
                    <path d="M100.833701,20.3443412 C99.2935426,18.8410765 98.5234635,17.0193706 98.5234635,14.8784294 C98.5234635,12.7382824 99.2935426,10.9181647 100.833701,9.41807647 C102.373859,7.91798824 104.302259,7.16754706 106.619701,7.16754706 C108.255919,7.16754706 109.705621,7.55110588 110.968807,8.31822353 C112.231193,9.08613529 113.160571,10.0065176 113.757743,11.0801647 L111.738886,12.2364 C111.252984,11.3763706 110.566157,10.7029588 109.678404,10.2185471 C108.789851,9.73254706 107.770817,9.49034118 106.619701,9.49034118 C104.968274,9.49034118 103.613831,9.99460588 102.555572,11.0023412 C101.498114,12.0108706 100.968985,13.3044882 100.968985,14.8839882 C100.968985,16.4634882 101.498114,17.7555176 102.555572,18.7600765 C103.613831,19.7646353 104.968274,20.2665176 106.619701,20.2665176 C107.770817,20.2665176 108.789851,20.0243118 109.678404,19.5391059 C110.566157,19.0539 111.252984,18.3812824 111.738886,17.5212529 L113.757743,18.6878118 C113.160571,19.7614588 112.231193,20.6818412 110.968807,21.4489588 C109.705621,22.2160765 108.255919,22.5996353 106.619701,22.5996353 C104.302259,22.5996353 102.373859,21.8484 100.833701,20.3443412" id="Fill-1" fill="#FDFDFE"></path>
                    <polygon id="Fill-3" fill="#FDFDFE" points="115.143805 22.2800029 115.143805 7.47685588 118.588348 7.47685588 123.915663 19.2965029 129.242978 7.47685588 132.697928 7.47685588 132.697928 22.2800029 130.522974 22.2800029 130.522974 9.71785588 124.862652 22.2800029 122.97908 22.2800029 117.318758 9.71785588 117.318758 22.2800029"></polygon>
                    <path d="M136.323784,19.9985029 L140.267037,19.9985029 C141.987308,19.9985029 143.359361,19.5410912 144.382398,18.6254735 C145.405434,17.71065 145.917753,16.4630912 145.917753,14.8835912 C145.917753,13.3040912 145.405434,12.0573265 144.382398,11.1417088 C143.359361,10.2268853 141.987308,9.76867941 140.267037,9.76867941 L136.323784,9.76867941 L136.323784,19.9985029 Z M133.982327,22.2800029 L133.982327,7.47685588 L140.267037,7.47685588 C142.639714,7.47685588 144.581722,8.17965 146.094663,9.58285588 C147.606004,10.9868559 148.363275,12.7521794 148.363275,14.8788265 C148.363275,17.0046794 147.606004,18.7700029 146.094663,20.1740029 C144.581722,21.5780029 142.639714,22.2800029 140.267037,22.2800029 L133.982327,22.2800029 Z" id="Fill-5" fill="#FDFDFE"></path>
                    <polygon id="Fill-7" fill="#FDFDFE" points="148.14714 9.71761765 148.14714 7.47741176 161.580299 7.47741176 161.580299 9.71761765 156.076074 9.71761765 156.076074 22.2797647 153.651365 22.2797647 153.651365 9.71761765"></polygon>
                    <mask id="mask-2" fill="white">
                        <use xlink:href="#path-1"></use>
                    </mask>
                    <g id="Clip-10"></g>
                    <path d="M214.362981,15.8926765 L217.966023,15.8926765 L217.966023,12.0801176 L214.362981,12.0801176 L214.362981,15.8926765 Z M208.885973,15.8926765 L212.457796,15.8926765 L212.457796,12.0801176 L208.885973,12.0801176 L208.885973,15.8926765 Z M214.362981,7.45597059 L214.362981,10.2846176 L219.8568,10.2846176 L219.8568,17.7199412 L214.362981,17.7199412 L214.362981,22.2162353 L212.457796,22.2162353 L212.457796,17.7199412 L207.012007,17.7199412 L207.012007,10.2846176 L212.457796,10.2846176 L212.457796,7.45597059 L214.362981,7.45597059 Z" id="Fill-9" fill="#FEFEFE" mask="url(#mask-2)"></path>
                    <path d="M228.024202,11.2057941 C228.85672,10.6554706 229.582772,10.0328824 230.202357,9.33882353 C230.821142,8.64555882 231.328658,7.99120588 231.723303,7.37655882 L233.19702,7.94832353 L232.668692,8.775 L236.928942,8.775 L236.928942,10.2369706 C236.373397,10.9246765 235.785831,11.5448824 235.167046,12.096 C234.547461,12.6463235 233.827012,13.1545588 233.004901,13.6207059 L233.757369,14.0018824 C233.586863,14.2663235 233.42116,14.5109118 233.26106,14.7324706 L237.280361,14.7324706 L237.280361,16.2897353 C236.864903,16.9147059 236.391808,17.5079118 235.863479,18.0693529 C235.335151,18.6307941 234.710762,19.1684118 233.989513,19.6814118 C233.269065,20.196 232.42534,20.6875588 231.459139,21.1592647 C230.492938,21.6301765 229.369839,22.0891765 228.088242,22.5338824 L227.335773,21.1195588 C229.651614,20.4207353 231.366281,19.7004706 232.476572,18.9587647 C233.586863,18.2178529 234.547461,17.3332059 235.359166,16.3056176 L231.996273,16.3056176 L231.451134,16.8781765 L231.932233,17.2593529 C232.145166,17.4396176 232.334884,17.5984412 232.500587,17.7358235 C232.66629,17.8732059 232.807178,18.0002647 232.924851,18.117 L231.787343,19.2613235 C231.670471,19.1334706 231.52558,18.9881471 231.355074,18.8237647 C231.184568,18.6601765 230.992449,18.4775294 230.778716,18.2758235 L230.346447,17.8946471 C230.090287,18.1066765 229.826123,18.3187059 229.553153,18.5299412 C229.280984,18.7419706 228.990403,18.954 228.68061,19.1652353 L227.575122,17.9899412 C228.441261,17.4181765 229.204136,16.8352941 229.866148,16.2420882 C230.52816,15.6488824 231.136538,15.0032647 231.691283,14.3036471 C231.285431,14.4950294 230.858765,14.6800588 230.409686,14.8603235 C229.962208,15.0405882 229.481108,15.2200588 228.96959,15.4003235 L228.136271,14.0177647 C229.684435,13.5627353 231.015663,13.0275 232.132358,12.4136471 C233.247452,11.799 234.189638,11.0787353 234.958917,10.2528529 L231.499964,10.2528529 L231.098915,10.6816765 L231.515174,10.9834412 C231.7177,11.1319412 231.89461,11.2693235 232.043503,11.3963824 C232.193196,11.5234412 232.321275,11.6298529 232.428542,11.7140294 L231.243005,12.7940294 C231.018865,12.5827941 230.709072,12.3072353 230.314427,11.9681471 L229.994228,11.6981471 C229.854941,11.8148824 229.713253,11.9284412 229.569964,12.0396176 C229.425874,12.1507941 229.278582,12.2651471 229.128889,12.3810882 L228.024202,11.2057941 Z M223.027493,8.79088235 C223.880824,8.68526471 224.706137,8.55026471 225.501832,8.38588235 C226.297527,8.2215 227.078813,8.01741176 227.847292,7.77441176 L228.537321,9.34676471 C227.960162,9.52702941 227.318963,9.69697059 226.614525,9.855 L226.614525,11.8252059 L228.376421,11.8252059 L228.376421,13.3824706 L226.614525,13.3824706 L226.614525,13.8430588 C227.10603,14.3092059 227.559913,14.7753529 227.975371,15.2415 C228.392431,15.7076471 228.702224,16.0777059 228.90555,16.3532647 L227.752032,17.4975882 C227.612746,17.2958824 227.439838,17.0632059 227.231709,16.7979706 C227.023579,16.5335294 226.817051,16.2794118 226.614525,16.0356176 L226.614525,22.2003529 L225.044748,22.2003529 L225.044748,16.5597353 C224.638895,17.6190882 224.222636,18.5196176 223.795971,19.2613235 L222.531184,18.4187647 C223.011483,17.6564118 223.443752,16.8329118 223.827991,15.9482647 C224.21223,15.0636176 224.542836,14.2083529 224.820608,13.3824706 L222.995473,13.3824706 L222.995473,11.8252059 L225.044748,11.8252059 L225.044748,10.1734412 C224.767776,10.2266471 224.50121,10.2711176 224.24425,10.3084412 C223.98809,10.3457647 223.747941,10.3743529 223.523801,10.395 L223.027493,8.79088235 Z" id="Fill-11" fill="#FEFEFE" mask="url(#mask-2)"></path>
                    <path d="M243.062439,20.2619118 L250.414213,20.2619118 L250.414213,17.847 L243.062439,17.847 L243.062439,20.2619118 Z M243.111269,11.2852059 C243.654807,10.7031176 244.138308,10.0646471 244.560171,9.37058824 C244.981233,8.67732353 245.336654,7.96420588 245.624833,7.23441176 L247.27466,7.80617647 L246.810371,8.74323529 L253.376857,8.74323529 L253.376857,10.2528529 C253.226363,10.4958529 253.090278,10.7102647 252.967802,10.8960882 C252.845326,11.0811176 252.724451,11.2510588 252.607578,11.4043235 C252.489905,11.5583824 252.373032,11.7037059 252.255359,11.8410882 C252.137686,11.9792647 252.015209,12.1222059 251.886329,12.2699118 L250.333363,11.6346176 C250.557502,11.4122647 250.76323,11.1954706 250.950547,10.9834412 C251.137063,10.7714118 251.310771,10.5546176 251.470871,10.3314706 L249.068576,10.3314706 L248.972516,11.2375588 C248.961309,11.3114118 248.950102,11.3836765 248.940496,11.4519706 C248.929289,11.5210588 248.91408,11.5925294 248.891666,11.6663824 C249.254292,12.2810294 249.757004,12.7948235 250.397403,13.2077647 C250.803255,13.473 251.305168,13.7263235 251.90314,13.9701176 C252.501112,14.2139118 253.179134,14.4259412 253.937205,14.6054118 L253.216757,16.2738529 C252.383439,15.9982941 251.654185,15.7155882 251.029796,15.4241471 C250.405408,15.1327059 249.884284,14.8388824 249.468825,14.5418824 C248.97812,14.1924706 248.549853,13.7739706 248.187228,13.2871765 C247.974295,13.6151471 247.690919,13.9177059 247.3387,14.1924706 C246.932847,14.5315588 246.447745,14.8603235 245.880993,15.1771765 C245.31504,15.4956176 244.647425,15.8132647 243.879747,16.1309118 L252.287379,16.1309118 L252.287379,21.9136765 L241.205283,21.9136765 L241.205283,16.1309118 L243.111269,16.1309118 L242.42204,14.7165882 C243.254558,14.4950294 243.9646,14.2432941 244.551365,13.9621765 C245.139731,13.6818529 245.60402,13.4086765 245.945833,13.1442353 C246.639064,12.6042353 247.03451,11.9578235 247.13057,11.2057941 L247.22663,10.3314706 L245.945833,10.3314706 C245.731299,10.6816765 245.504759,11.0175882 245.264609,11.3407941 C245.02446,11.664 244.754692,11.9840294 244.456106,12.3016765 L243.111269,11.2852059 Z M240.964333,7.42420588 C241.146046,7.54094118 241.350974,7.695 241.580717,7.88479412 C241.81126,8.07617647 242.064218,8.29376471 242.341991,8.53676471 C242.618963,8.78055882 242.864716,9.00291176 243.079249,9.20382353 C243.292182,9.40552941 243.473895,9.585 243.622788,9.74461765 L242.40603,11.0946176 C242.256337,10.9143529 242.079427,10.719 241.877702,10.5069706 C241.675176,10.2949412 241.434226,10.0567059 241.156453,9.79226471 C240.889887,9.52702941 240.646536,9.29911765 240.428,9.10852941 C240.209464,8.91794118 240.009339,8.75435294 239.827626,8.61617647 L240.964333,7.42420588 Z M239.427377,14.7967941 C239.875656,14.4045 240.403985,13.8430588 241.012363,13.1124706 C241.333363,12.7416176 241.612737,12.3977647 241.852886,12.0801176 C242.093836,11.7616765 242.299564,11.4757941 242.47007,11.2216765 L243.863737,12.2857941 C243.692431,12.5510294 243.483501,12.8472353 243.239349,13.176 C242.992796,13.5047647 242.704616,13.8700588 242.37401,14.2718824 C242.043405,14.6745 241.741617,15.0247059 241.469448,15.3209118 C241.197278,15.6171176 240.948323,15.8720294 240.724184,16.0832647 L239.427377,14.7967941 Z" id="Fill-12" fill="#FEFEFE" mask="url(#mask-2)"></path>
                    <path d="M262.585787,18.1797353 L265.147381,18.1797353 L265.147381,16.6232647 L262.585787,16.6232647 L262.585787,18.1797353 Z M262.585787,15.0350294 L265.147381,15.0350294 L265.147381,13.5571765 L262.585787,13.5571765 L262.585787,15.0350294 Z M257.828427,7.63147059 C258.149426,7.93879412 258.544072,8.37794118 259.013964,8.94970588 C259.50467,9.51114706 259.867295,9.96617647 260.102642,10.3163824 L258.821845,11.4916765 C258.576092,11.1105 258.223072,10.6340294 257.764387,10.0622647 C257.294494,9.48970588 256.910255,9.045 256.611669,8.72735294 L257.828427,7.63147059 Z M257.252068,20.9607353 C257.444187,20.7907941 257.569866,20.6295882 257.628302,20.4763235 C257.687539,20.3230588 257.726763,20.1030882 257.748377,19.8172059 L257.748377,14.1765882 L256.179401,14.1765882 L256.179401,12.4930588 L259.366183,12.4930588 L259.366183,12.6828529 C259.675976,12.3334412 259.990572,11.9395588 260.310771,11.4996176 C260.63097,11.0604706 260.93516,10.6022647 261.224139,10.1257941 C261.512319,9.64932353 261.778885,9.16729412 262.024638,8.67970588 C262.26959,8.19291176 262.472916,7.73232353 262.633016,7.29714706 L264.314863,7.86970588 C264.229209,8.06029412 264.152361,8.24294118 264.082718,8.41764706 C264.013075,8.59235294 263.935426,8.76467647 263.850574,8.93382353 L270,8.93382353 C270,9.90820588 269.995197,10.8881471 269.984791,11.8728529 C269.973584,12.8583529 269.960776,13.8089118 269.943965,14.7253235 C269.928756,15.6409412 269.906342,16.5017647 269.879925,17.307 C269.853509,18.1114412 269.824691,18.8158235 269.792671,19.4193529 C269.760651,19.9815882 269.698212,20.4310588 269.607756,20.7701471 C269.5173,21.1092353 269.386018,21.3736765 269.215512,21.5642647 C269.044205,21.7548529 268.836076,21.8874706 268.591123,21.9613235 C268.34537,22.0359706 268.046785,22.0891765 267.694566,22.1209412 C267.213466,22.1630294 266.778796,22.1947941 266.388953,22.2162353 C265.99831,22.2368824 265.633283,22.248 265.292271,22.248 L264.875211,20.3730882 C265.163391,20.3834118 265.507605,20.3969118 265.908654,20.4127941 C266.308903,20.4286765 266.679534,20.4255 267.021347,20.4048529 C267.224673,20.4048529 267.387174,20.3913529 267.50965,20.3651471 C267.632127,20.3389412 267.731388,20.2801765 267.805835,20.1904412 C267.881082,20.1007059 267.936316,19.9625294 267.973939,19.7767059 C268.011563,19.5924706 268.040381,19.3296176 268.061994,18.9905294 C268.083608,18.6196765 268.104421,18.1511471 268.126834,17.5849412 C268.147647,17.0179412 268.166059,16.3770882 268.182869,15.6623824 C268.198079,14.9468824 268.209286,14.1662647 268.214889,13.3189412 C268.219692,12.4716176 268.217291,11.5822059 268.206884,10.6499118 L262.969225,10.6499118 C262.841146,10.8825882 262.707462,11.1057353 262.568976,11.3169706 C262.42969,11.529 262.2864,11.7410294 262.136707,11.9522647 L266.781197,11.9522647 L266.781197,19.8013235 L260.95197,19.8013235 L260.95197,13.4777647 L260.72703,13.7318824 L259.366183,12.7471765 L259.366183,19.1811176 C259.462243,19.0858235 259.550298,18.9984706 259.630348,18.9190588 C259.710398,18.8396471 259.788046,18.7578529 259.862492,18.6728824 C259.936939,18.5879118 260.012185,18.4981765 260.087432,18.4028824 C260.161078,18.3075882 260.241928,18.2019706 260.326781,18.0852353 L260.88793,19.6901471 C260.716624,19.8807353 260.522103,20.0872059 260.302766,20.3095588 C260.08423,20.5319118 259.856889,20.7518824 259.622343,20.9686765 C259.387797,21.1854706 259.150049,21.3951176 258.909899,21.5960294 C258.66975,21.7969412 258.448012,21.9724412 258.245486,22.1209412 L257.252068,20.9607353 Z" id="Fill-13" fill="#FEFEFE" mask="url(#mask-2)"></path>
                    <path d="M180.986294,16.335 C181.931682,17.1648529 182.829841,18.0415588 183.37578,19.1596765 C183.518269,19.5082941 183.619132,19.872 183.344561,20.1705882 C182.9251,20.6152941 182.468816,21.0274412 182.006929,21.4300588 C182.267891,21.1171765 182.118998,20.7423529 181.963702,20.3802353 C181.535435,19.5337059 180.881428,18.8412353 180.203407,18.1717941 C178.343049,16.4588824 176.024807,14.8682647 173.132607,14.0963824 C171.837401,13.7811176 170.426923,13.6469118 169.211767,14.1988235 C168.837134,14.8928824 168.919586,15.6465 169.122112,16.3913824 C169.549578,17.7247059 170.493365,18.8507647 171.534813,19.8370588 C172.612283,20.7796765 173.805826,21.6293824 175.185084,22.3591765 C174.686374,22.7713235 173.471218,23.9172353 172.981313,24.3357353 C167.165694,20.5652647 166.830286,17.4205588 167.866931,15.4575 C168.259975,14.7705882 168.89397,14.2909412 169.445513,13.7445882 C170.022672,13.1918824 170.724709,12.7074706 171.748546,12.5962941 C173.446402,12.4025294 175.137855,12.8821765 176.815699,13.6207059 C178.434306,14.3671765 179.77434,15.3034412 180.986294,16.335" id="Fill-14" fill="#8EC330" mask="url(#mask-2)"></path>
                    <path d="M188.889691,13.6924941 C189.410015,14.3134941 189.928738,15.0154941 190.120857,15.7802294 C190.251339,16.1479059 190.040808,16.4893765 189.736618,16.7839941 C189.33717,17.1707294 188.933719,17.5479353 188.511856,17.9179941 C188.541475,17.8639941 188.592707,17.8115824 188.626327,17.7504353 C188.799235,17.2445824 188.507854,16.6783765 188.215672,16.1526706 C187.395161,14.9035235 186.316891,13.8449647 185.125749,12.8547 C182.657814,10.7741118 178.905879,8.6292 175.298034,8.42590588 C174.306217,8.36078824 173.131887,8.49261176 172.296167,8.94605294 C170.945726,11.3967 173.259966,14.5692 175.455732,16.4393471 C176.795766,17.5900235 178.345531,18.5969647 180.04899,19.5022588 C180.783848,19.8739059 181.604358,20.2106118 182.387245,20.3170235 C182.911572,20.3884941 183.369457,20.1383471 183.362252,20.1518471 C182.920377,20.5957588 182.476101,21.0142588 182.007009,21.4303765 C181.797278,21.6154059 181.449862,21.7519941 181.102446,21.7146706 C180.150654,21.6574941 179.117211,21.1619647 178.24867,20.7188471 C176.618056,19.8183176 175.128329,18.8201118 173.831522,17.6877 C172.030401,16.0812 170.16444,13.6964647 170.452619,11.5221706 C170.51826,10.7812588 170.961736,10.0006412 171.544499,9.45825882 C172.010389,8.95081765 172.544321,8.49578824 173.069448,8.03678824 C173.78029,7.39990588 175.026665,7.02587647 176.173779,7.02428824 C179.468629,6.97346471 183.169332,8.84043529 185.635667,10.6899353 C186.850022,11.5992 187.940301,12.5966118 188.889691,13.6924941" id="Fill-15" fill="#54C2F0" mask="url(#mask-2)"></path>
                    <path d="M198.655928,10.4621029 C199.095402,11.0211618 199.484444,11.54925 199.774224,12.0574853 L198.398168,13.0636324 L197.1638,11.4571324 L198.655928,10.4621029 Z" id="Fill-16" fill="#FEFEFE" mask="url(#mask-2)"></path>
                    <path d="M193.052442,11.6874265 L194.600605,10.6868382 L195.495562,11.9113676 L197.786587,10.4676618 C197.757769,10.4208088 194.629423,4.73095588 187.747541,1.64739706 C185.280406,0.541985294 182.761238,-0.143338235 180.266086,0.0250147059 C178.981286,0.118720588 177.744517,0.553897059 176.94722,1.23048529 C176.261994,1.82051471 175.59598,2.43516176 174.976394,3.08475 C173.55471,4.63169118 173.601939,6.53360294 174.420048,8.39183824 C175.439082,10.6058382 177.096914,12.3926029 179.060535,13.9586029 C180.534252,15.1235735 182.164067,16.1805441 183.939571,17.1326912 C184.957805,17.63775 186.148946,18.1991912 187.253633,18.2944853 C187.690705,18.3445147 188.207827,18.2118971 188.471991,17.9506324 C188.98431,17.4948088 189.491826,17.0294559 189.950511,16.5347206 C189.773601,16.7165735 189.445397,16.8198088 189.139607,16.8253676 C187.805977,16.8325147 186.367482,16.1106618 185.169937,15.4817206 C183.339998,14.4739853 181.662154,13.3646029 180.158018,12.1202206 C178.352095,10.5613676 176.749497,8.83098529 175.86895,6.65827941 C175.277381,5.13277941 175.021222,3.93683824 175.880957,2.54395588 C179.772979,1.65851471 189.007525,5.32257353 193.052442,11.6874265" id="Fill-17" fill="#FEFEFE" mask="url(#mask-2)"></path>
                    <polygon id="Fill-18" fill="#FEFEFE" mask="url(#mask-2)" points="194.290652 11.7982853 195.174402 12.9934324 194.037695 13.7772265 193.132331 12.5574618"></polygon>
                    <polygon id="Fill-19" fill="#FEFEFE" mask="url(#mask-2)" points="197.151072 13.7401412 197.684204 14.5128176 197.038202 15.0178765 196.48986 14.2594941"></polygon>
                    <path d="M22.1097572,17.0527235 C20.110113,14.4249882 17.1170506,11.7400765 16.2925376,11.0746059 C15.714578,10.6108412 15.1366183,10.3734 14.5658632,10.3845176 C13.9991106,10.3900765 13.4507694,10.6211647 12.9608645,11.0452235 C12.8624033,11.1294 12.7239171,11.2516941 12.550209,11.4049588 C11.3662723,12.3991941 7.69278662,15.7479882 7.60953482,15.8266059 C7.33176199,16.0831059 6.97473984,16.2562235 6.5736903,16.2403412 C6.21906964,16.2252529 5.82842658,16.0696059 5.43298052,15.7035176 C5.16081117,15.4541647 3.90803166,14.4766059 2.44151917,12.8407235 C1.53775683,11.8345765 0.792493107,10.9404 0.792493107,10.9404 C0.792493107,10.9404 0.630792493,11.2771059 0.537934715,11.5121647 C0.457084408,11.7075176 0.522725251,11.8329882 0.561949658,11.8861941 C1.04865249,12.5842235 3.28684515,15.2397529 6.37436627,17.8762235 C6.94111892,18.3582529 7.52868451,18.5742529 8.09783866,18.5663118 C8.6645913,18.5575765 9.21613448,18.3264882 9.70443832,17.9056059 C9.79809659,17.8222235 9.94138575,17.6983412 10.1134928,17.5458706 C11.301432,16.5524294 13.5276172,14.5266353 14.5818732,13.5594 C14.8076136,13.3561059 14.9733167,13.2036353 15.0613715,13.1234294 C15.3375434,12.8653412 15.6961665,12.6954 16.0908121,12.7120765 C16.4462332,12.7231941 16.8208663,12.8994882 17.2291203,13.2457235 C17.8911323,13.8063706 18.9573957,14.7879 20.2213822,16.1101059 C21.1571645,17.0821059 21.8656053,17.9921647 21.8760117,18.0032824 C21.8760117,18.0032824 22.0473183,17.6530765 22.1393756,17.4132529 C22.2138219,17.2186941 22.1473806,17.1035471 22.1097572,17.0527235" id="Fill-20" fill="#FEFEFE" mask="url(#mask-2)"></path>
                    <path d="M10.2258027,7.40276471 C9.19316019,8.14923529 4.93931335,12.0682059 4.10839634,13.0028824 C4.10839634,13.0028824 4.70316641,13.6604118 5.60452726,14.3965588 C5.83667171,14.5950882 6.12004803,14.5537941 6.36419995,14.3107941 C7.99881704,12.6772941 11.3392956,9.75414706 11.791577,9.39520588 C13.04996,8.33585294 14.515672,8.24214706 15.8613093,9.24035294 C19.121738,11.6663824 22.0115361,15.4805294 22.5054434,16.1952353 C22.5054434,16.1952353 22.5782887,15.8434412 22.6263186,15.525 C22.6263186,15.5115 22.6903584,15.2264118 22.5254558,14.9873824 C19.4651516,10.6006765 16.2071244,7.89908824 14.9559459,7.22329412 C13.5278573,6.44744118 11.8740283,6.20682353 10.2258027,7.40276471" id="Fill-21" fill="#FEFEFE" mask="url(#mask-2)"></path>
                    <path d="M6.78614249,5.11419706 C4.68483501,6.79455 1.97674998,9.27299118 1.29392511,10.02105 C1.29392511,10.02105 1.80464289,10.6515794 2.60514098,11.4329912 C2.7628391,11.5632265 2.92774171,11.5306676 3.06382638,11.3853441 C5.13791693,9.39607941 7.39292004,7.36393235 8.69533043,6.36493235 C10.8999022,4.67346176 13.482309,4.51066765 16.0062795,6.50469706 C16.9436627,7.24957941 17.7737792,7.98652059 18.9913368,9.22852059 C20.5475051,10.9112559 21.5585342,12.3144618 22.6744285,13.8995206 C22.6744285,13.8995206 22.6664236,13.4754618 22.5439473,12.9124324 C22.5247354,12.8171382 22.4815085,12.6606971 22.4126657,12.5280794 C22.1885262,12.0809912 21.2103175,10.4109618 19.7830294,8.76078529 C16.9620742,5.49140294 15.1769634,4.49399118 14.0362537,3.90157941 C12.5249133,3.11222647 9.56867384,2.87796176 6.78614249,5.11419706" id="Fill-22" fill="#FEFEFE" mask="url(#mask-2)"></path>
                    <path d="M12.4459041,21.5490971 C13.4801476,20.8010382 17.7291915,16.8852441 18.5649115,15.9450088 C18.5649115,15.9450088 17.9669394,15.2898618 17.0679801,14.5537147 C16.8366361,14.3559794 16.5548608,14.3964794 16.3131104,14.6418618 C14.6712888,16.2729794 11.3340123,19.1961265 10.8857333,19.5526853 C9.62414836,20.6136265 8.15843636,20.7073324 6.81359957,19.7099206 C3.54996887,17.2870676 0.663372765,13.4697441 0.170265943,12.7582147 C0.170265943,12.7582147 0.0958196211,13.1076265 0.0461887397,13.4213029 C0.0461887397,13.4427441 -0.0154496131,13.7238618 0.145450503,13.9644794 C3.20975718,18.3480088 6.4661834,21.0519794 7.71736191,21.7269794 C9.14945299,22.5028324 10.7992796,22.74345 12.4459041,21.5490971" id="Fill-23" fill="#FEFEFE" mask="url(#mask-2)"></path>
                    <path d="M15.8910077,23.8368706 C17.9915147,22.1557235 20.6931958,19.6788706 21.3808236,18.9316059 C21.3808236,18.9316059 20.8669039,18.2979 20.0648048,17.5188706 C19.9111091,17.3862529 19.7462065,17.4204 19.6101219,17.5649294 C17.5328293,19.5541941 15.2810282,21.5871353 13.9754158,22.5861353 C11.7708441,24.2768118 9.18603576,24.4396059 6.66766877,22.4439882 C5.73028551,21.6991059 4.898568,20.9637529 3.6834119,19.7209588 C2.12724362,18.0398118 1.11221204,16.6342235 0.000208118977,15.0515471 C0.000208118977,15.0515471 -0.00848527973,15.4621059 0.130000889,16.0386353 C0.152414836,16.1323412 0.193240238,16.2856059 0.264484568,16.4253706 C0.48542204,16.8692824 1.4668327,18.5393118 2.89091879,20.1894882 C5.71187405,23.4604588 7.49618429,24.4570765 8.63769457,25.0510765 C10.1530374,25.8388412 13.1068754,26.0691353 15.8910077,23.8368706" id="Fill-24" fill="#FEFEFE" mask="url(#mask-2)"></path>
                    <path d="M32.8460375,11.0660294 L35.8567108,11.0660294 L35.8567108,7.50044118 L32.8460375,7.50044118 L32.8460375,11.0660294 Z M28.7771058,11.0660294 L31.7549586,11.0660294 L31.7549586,7.50044118 L28.7771058,7.50044118 L28.7771058,11.0660294 Z M32.8460375,4.57570588 L31.7549586,4.57570588 L31.7549586,6.54035294 L27.7236503,6.54035294 L27.7236503,12.0308824 L31.7549586,12.0308824 L31.7549586,15.0112059 L32.8460375,15.0112059 L32.8460375,12.0308824 L36.9125678,12.0308824 L36.9125678,6.54035294 L32.8460375,6.54035294 L32.8460375,4.57570588 Z" id="Fill-25" fill="#FEFEFE" mask="url(#mask-2)"></path>
                    <path d="M45.5810015,9.94759412 L44.8357378,10.5003 L44.9157876,10.5789176 C45.2183759,10.8918 45.5986125,11.3563588 45.9244152,11.7915353 L45.9892555,11.8685647 L46.7609357,11.2840941 L46.7008983,11.2062706 C46.425527,10.8592412 46.017273,10.3986529 45.6370364,10.0095353 L45.5810015,9.94759412 Z" id="Fill-26" fill="#FEFEFE" mask="url(#mask-2)"></path>
                    <polygon id="Fill-27" fill="#FEFEFE" mask="url(#mask-2)" points="47.1702304 12.0188912 44.5445966 12.0188912 44.5445966 9.86603824 46.7923953 9.86603824 46.7923953 8.96868529 44.5445966 8.96868529 44.5445966 7.60359706 47.0013253 7.60359706 47.0013253 6.70386176 41.1312728 6.70386176 41.1312728 7.60359706 43.5791959 7.60359706 43.5791959 8.96868529 41.3313973 8.96868529 41.3313973 9.86603824 43.5791959 9.86603824 43.5791959 12.0188912 40.9663702 12.0188912 40.9663702 12.9186265 47.1702304 12.9186265"></polygon>
                    <path d="M40.4043405,13.8057353 L47.7465089,13.8057353 L47.7465089,5.88123529 L40.4043405,5.88123529 L40.4043405,13.8057353 Z M39.4037179,14.7443824 L48.7439296,14.7356471 L48.7439296,4.95370588 L39.4037179,4.95370588 L39.4037179,14.7443824 Z" id="Fill-28" fill="#FEFEFE" mask="url(#mask-2)"></path>
                    <path d="M55.1017255,10.5959118 C54.6486436,10.1996471 53.4158765,9.20858824 53.4158765,9.20858824 L53.4158765,8.69082353 L54.8679801,8.69082353 L54.8679801,7.75852941 L53.4158765,7.75852941 L53.4158765,6.25685294 C54.4405141,6.09167647 54.895197,5.95191176 54.895197,5.95191176 L54.6934715,5.00214706 C54.6934715,5.00214706 53.7801032,5.23164706 52.8467224,5.35870588 C51.6451748,5.51752941 50.9279285,5.58502941 50.9279285,5.58502941 L51.0327937,6.52685294 C51.0327937,6.52685294 51.8340923,6.44188235 52.4496754,6.33070588 L52.4496754,7.75852941 L50.7974473,7.75852941 L50.7974473,8.69082353 L52.3047852,8.69082353 C51.8989327,9.93838235 51.2777462,11.1486176 50.6037268,12.1007647 C50.6037268,12.1007647 51.3097661,12.8591471 51.3201726,12.8488235 C51.7524415,12.2492647 52.1310771,11.5710882 52.4496754,10.8373235 L52.4496754,15.0072353 L53.4158765,15.0072353 L53.4158765,10.4299412 C53.7728987,10.7547353 54.1043049,11.0580882 54.4156987,11.3479412 L54.483741,11.4178235 L55.1705684,10.6570588 L55.1017255,10.5959118 Z" id="Fill-29" fill="#FEFEFE" mask="url(#mask-2)"></path>
                    <path d="M58.5136085,9.85603235 C58.6841146,9.62812059 58.7537579,9.37162059 58.7537579,9.37162059 L57.7939607,9.21279706 C57.9780752,9.11273824 58.1517833,9.00632647 58.3254914,8.90150294 C59.4742062,8.16932647 60.2795072,7.30770882 60.788624,6.33888529 L60.7974295,6.31109118 L60.7974295,5.44867941 L57.4145246,5.44867941 C57.5209908,5.27794412 57.6242551,5.10165 57.7139109,4.92615 L57.7603398,4.83006176 L56.834964,4.48144412 L56.8013431,4.55926765 C56.2762163,5.60194412 55.5141421,6.52867941 54.5471404,7.31723824 C54.535133,7.32597353 55.0482522,7.71588529 55.3460375,7.90409118 C55.9312016,7.38950294 56.4131015,6.87332647 56.7781286,6.38017941 L59.6230988,6.38017941 C59.121987,7.02579706 58.6304812,7.55626765 58.0597261,7.92315 C57.6850929,7.59438529 57.3608912,7.32994412 56.8789914,6.95194412 L56.809348,6.90112059 L56.196967,7.55944412 L56.2762163,7.62059118 C56.7060838,7.97476765 56.9566397,8.19156176 57.2392155,8.45997353 C56.4947523,8.85862059 55.6774437,9.17706176 54.7480655,9.45103235 C54.7480655,9.45103235 55.356444,10.2729441 55.372454,10.2673853 C55.9239972,10.0775912 57.0494975,9.57729706 57.5378013,9.36209118 C56.8942008,10.6207676 55.4829227,11.6300912 54.5039135,12.1613559 C54.5039135,12.1613559 54.9265765,12.6124147 55.2571822,12.8712971 C56.820555,12.1613559 57.8932224,10.7827676 57.8932224,10.7827676 L60.0481633,10.7827676 C59.9080761,11.5205029 59.2620742,12.4353265 58.3511074,12.98565 C57.9900827,12.6314735 57.6386641,12.28365 57.2079961,11.9016794 L56.5243707,12.4932971 C56.9022058,12.8403265 57.233612,13.1960912 57.5129859,13.4907088 C56.1401316,14.0767676 54.302188,14.1617382 54.302188,14.1617382 L54.6856266,14.9923853 C54.6856266,14.9923853 60.0713777,14.8573853 61.1656586,10.7494147 L61.1728631,9.85603235 L58.5136085,9.85603235 Z" id="Fill-30" fill="#FEFEFE" mask="url(#mask-2)"></path>
                    <polygon id="Fill-31" fill="#FEFEFE" mask="url(#mask-2)" points="63.0280174 6.52447059 67.4179489 6.52447059 67.4179489 5.56279412 63.0280174 5.56279412"></polygon>
                    <path d="M67.6013431,13.0662529 C67.2851463,12.3015176 66.805648,11.2231059 66.4470248,10.4512235 L66.4053989,10.3662529 L65.5104421,10.7625176 L65.5496665,10.8538412 C65.7882149,11.3779588 66.0003469,11.8520471 66.2188829,12.3928412 L63.9062439,12.9360176 C64.4177622,12.1077529 65.0541581,10.2447529 65.4023748,9.24575294 L67.8382905,9.24575294 L67.8382905,8.28407647 L62.5910255,8.28407647 L62.5910255,9.24575294 L64.3185004,9.24575294 C64.2136352,9.79448824 63.6100596,11.6074588 62.795953,13.0869 C62.6958908,13.2687529 62.5518011,13.3775471 62.5518011,13.3775471 L62.8431824,14.0676353 C62.8431824,14.0676353 65.6625367,13.3140176 66.5030597,13.1877529 L66.6079249,13.4379 L67.6013431,13.0662529 Z" id="Fill-32" fill="#FEFEFE" mask="url(#mask-2)"></path>
                    <path d="M69.9227075,6.72609706 C69.9371164,6.05586176 69.9467224,5.37689118 69.9467224,4.70030294 L69.9467224,4.60024412 L68.8940674,4.60024412 L68.8940674,4.69395 C68.8972694,5.39197941 68.8940674,6.06697941 68.8868629,6.72609706 L67.5244152,6.72609706 L67.5244152,7.70921471 L68.874055,7.70921471 L68.874055,9.01871471 C68.874055,11.0048029 68.5274393,12.0188912 67.7485547,13.19895 C67.2826648,13.9184206 66.4285333,14.4060088 66.4285333,14.4060088 L67.2122209,15.1620088 C67.2122209,15.1620088 69.8842836,13.7738912 69.8842836,9.41974412 L69.9066975,7.70921471 L71.6950102,7.70921471 C71.6733968,9.49121471 71.6085564,11.2422441 71.5076937,12.9178324 C71.4884817,13.4427441 71.2643423,13.6881265 70.8016544,13.6881265 C70.4118118,13.6801853 69.6265232,13.6793912 69.6265232,13.6793912 C69.684159,13.9890971 69.8002313,14.7180971 69.8002313,14.7180971 L71.0666192,14.7180971 C71.9511696,14.7069794 72.4474784,14.1788912 72.5283287,13.1457441 C72.6179845,11.5575088 72.6860269,9.42768529 72.7388597,6.82853824 L72.7404607,6.72609706 L69.9227075,6.72609706 Z" id="Fill-33" fill="#FEFEFE" mask="url(#mask-2)"></path>
                    <path d="M37.210113,19.1469706 C37.0740283,19.0334118 36.9219336,18.9595588 36.7594325,18.9127059 C36.4488393,18.8277353 36.1222361,18.8277353 35.8484657,18.9039706 C35.721987,18.9389118 35.5947078,18.9857647 35.4786356,19.0461176 C35.3665659,19.1032941 35.2600996,19.1779412 35.1632393,19.2605294 C35.120813,19.3018235 35.0743841,19.3447059 35.0391621,19.3852059 L35.0391621,16.8638824 L34.2258561,16.8638824 L34.2258561,23.1000882 L35.0391621,23.1000882 L35.0391621,20.2110882 C35.1784488,20.0149412 35.3489549,19.8553235 35.5378725,19.7385882 C35.736396,19.6242353 35.9461265,19.5630882 36.1582585,19.5630882 C36.4168194,19.5630882 36.5905274,19.6353529 36.7009962,19.7782941 C36.8098639,19.9236176 36.8658988,20.1531176 36.8658988,20.4564706 L36.8658988,23.1000882 L37.6808058,23.1000882 L37.6808058,20.3516471 C37.6808058,20.0514706 37.6399804,19.7997353 37.5503246,19.6075588 C37.4638709,19.4098235 37.3518011,19.2557647 37.210113,19.1469706" id="Fill-34" fill="#FEFEFE" mask="url(#mask-2)"></path>
                    <polygon id="Fill-35" fill="#FEFEFE" mask="url(#mask-2)" points="38.5599929 18.1852941 39.3757004 18.1852941 39.3757004 17.2990588 38.5599929 17.2990588"></polygon>
                    <polygon id="Fill-36" fill="#FEFEFE" mask="url(#mask-2)" points="38.5599929 23.1000882 39.3757004 23.1000882 39.3757004 18.954 38.5599929 18.954"></polygon>
                    <path d="M43.3030241,19.1916 C43.1757449,19.0732765 43.0188473,18.9851294 42.8483412,18.9295412 C42.5401494,18.8318647 42.1583118,18.8263059 41.861327,18.9041294 C41.7236414,18.9398647 41.5955617,18.9867176 41.4778885,19.0518353 C41.3682202,19.1145706 41.258552,19.1884235 41.1688962,19.2694235 C41.1072578,19.3178647 41.060829,19.3734529 41.0103976,19.4290412 L40.9015298,18.9541588 L40.2507249,18.9541588 L40.2507249,23.0994529 L41.0632305,23.0994529 L41.0632305,20.2112471 C41.2073201,20.0151 41.3770257,19.8538941 41.5739482,19.7387471 C41.7668683,19.6243941 41.9773993,19.5632471 42.1887308,19.5632471 C42.4240772,19.5632471 42.5913813,19.6331294 42.711456,19.7649529 C42.8347327,19.8999529 42.8915681,20.1334235 42.8915681,20.4566294 L42.8915681,23.0994529 L43.7096771,23.0994529 L43.7096771,20.3518059 C43.7096771,20.0802176 43.6704527,19.8467471 43.6024104,19.6577471 C43.5255626,19.4671588 43.4238993,19.3099235 43.3030241,19.1916" id="Fill-37" fill="#FEFEFE" mask="url(#mask-2)"></path>
                    <path d="M46.8614783,21.3311912 L46.8614783,22.0331912 C46.8334608,22.0625735 46.7926354,22.0975147 46.745406,22.1380147 C46.6821667,22.1936029 46.6077204,22.2428382 46.5148626,22.2960441 C46.4268078,22.3500441 46.322743,22.3992794 46.2090723,22.4373971 C46.0145513,22.5025147 45.7695989,22.5136324 45.5630704,22.4532794 C45.4814195,22.4262794 45.4069732,22.3865735 45.3501379,22.3333676 C45.2933025,22.28175 45.2436716,22.2134559 45.2052477,22.1324559 C45.1732278,22.0530441 45.1540158,21.9529853 45.1540158,21.8418088 C45.1540158,21.62025 45.2236592,21.4669853 45.3589433,21.3621618 C45.5054345,21.2565441 45.70716,21.2049265 45.9617184,21.2049265 C46.1562394,21.2049265 46.338753,21.2200147 46.4996531,21.2501912 C46.6341368,21.2763971 46.7542115,21.3033971 46.8614783,21.3311912 M47.5475051,19.6754559 C47.4314329,19.4261029 47.2329094,19.2243971 46.9615405,19.0735147 C46.6917727,18.9273971 46.345157,18.8479853 45.9280975,18.8479853 C45.8088233,18.8479853 45.692751,18.8567206 45.5806813,18.8670441 C45.4646091,18.87975 45.3517389,18.8956324 45.2508761,18.9162794 C45.1460109,18.9401029 45.0435471,18.9655147 44.9514898,18.9941029 C44.8546295,19.0250735 44.7729787,19.0576324 44.7001334,19.0917794 L44.6601085,19.1140147 L44.6601085,19.8231618 L44.7649738,19.7818676 C44.9418838,19.71675 45.1147914,19.6651324 45.2893,19.6286029 C45.4646091,19.5936618 45.6511251,19.5722206 45.8456462,19.5722206 C46.1050076,19.5722206 46.3139376,19.6158971 46.4612292,19.6921324 C46.6077204,19.7763088 46.7141866,19.8795441 46.7798274,19.9962794 C46.8102464,20.0534559 46.8278573,20.1201618 46.8430668,20.1979853 C46.8550743,20.2773971 46.8614783,20.3695147 46.8614783,20.4703676 L46.8614783,20.6458676 C46.7446055,20.6037794 46.6133238,20.5743971 46.4676332,20.5497794 C46.2811171,20.5148382 46.0841946,20.4926029 45.8680601,20.4910147 C45.6439207,20.4910147 45.4325892,20.5219853 45.2436716,20.5823382 C45.0539536,20.6458676 44.8882505,20.7340147 44.7497643,20.8491618 C44.6112781,20.9643088 44.5056124,21.1112206 44.4263631,21.2732206 C44.3519167,21.4383971 44.3094903,21.6329559 44.3094903,21.8418088 C44.3094903,22.0530441 44.3471138,22.2428382 44.4143556,22.4119853 C44.4872009,22.5795441 44.5816597,22.7264559 44.7073379,22.8431912 C44.8330161,22.9631029 44.9819087,23.0528382 45.1540158,23.1131912 C45.3229209,23.17275 45.512639,23.2021324 45.716766,23.2021324 C45.8632571,23.2021324 46.0097483,23.1870441 46.1418305,23.1536912 C46.2723117,23.1243088 46.3955884,23.07825 46.5036556,23.0258382 C46.6165258,22.9718382 46.7189896,22.9098971 46.8038424,22.8416029 C46.8446678,22.8058676 46.8854932,22.7741029 46.9231166,22.7375735 L46.9807525,23.0996912 L47.6747843,23.0996912 L47.6747843,20.3560147 C47.6747843,20.2257794 47.6675798,20.1042794 47.6467669,19.9923088 C47.6283554,19.8795441 47.597136,19.7731324 47.5475051,19.6754559" id="Fill-38" fill="#FEFEFE" mask="url(#mask-2)"></path>
                    <path d="M32.662003,21.2776676 C32.2577515,21.9574324 31.5212932,22.3759324 30.7376056,22.3759324 C29.5128435,22.3759324 28.5090189,21.3848735 28.5090189,20.1635206 C28.5090189,18.9429618 29.5128435,17.9526971 30.7376056,17.9526971 C31.5188918,17.9526971 32.252148,18.36405 32.6563995,19.0334912 L32.6772125,19.0731971 L33.5409499,19.0731971 L33.4953215,18.9659912 C33.0126212,17.8772559 31.9343503,17.1752559 30.7376056,17.1752559 C29.0781731,17.1752559 27.7237303,18.5157265 27.7237303,20.1635206 C27.7237303,21.8073441 29.0781731,23.1501971 30.7376056,23.1501971 C31.9367518,23.1501971 33.0246287,22.4450206 33.499324,21.3499324 L33.5481544,21.2443147 L32.681215,21.2443147 L32.662003,21.2776676 Z" id="Fill-39" fill="#FEFEFE" mask="url(#mask-2)"></path>
                    <path d="M53.5187405,20.5502559 C53.4026683,20.8281971 53.2497732,21.2085794 53.0792671,21.6898147 C52.9207685,21.25305 52.7750778,20.8742559 52.6389932,20.5534324 L51.2845504,17.3269324 L50.1582496,17.3269324 L50.1582496,23.0993735 L51.0083785,23.0993735 L51.0083785,20.3056676 C51.0083785,19.7728147 50.9931691,19.1859618 50.9667526,18.5578147 C51.1180468,18.9659912 51.2709419,19.3439912 51.4182336,19.6973735 L52.8671351,23.0993735 L53.2905986,23.0993735 L54.7330961,19.6973735 C54.8787868,19.36305 55.0300809,18.98505 55.1885796,18.5578147 C55.1645646,19.1915206 55.1501557,19.7823441 55.1501557,20.3056676 L55.1501557,23.0993735 L55.9970826,23.0993735 L55.9970826,17.3269324 L54.8707818,17.3269324 L53.5187405,20.5502559 Z" id="Fill-40" fill="#FEFEFE" mask="url(#mask-2)"></path>
                    <path d="M64.3915058,21.0113206 C64.3915058,21.2336735 64.3674909,21.4361735 64.314658,21.6204088 C64.2698301,21.8046441 64.1961843,21.9610853 64.1001245,22.0913206 C64.0104687,22.2199676 63.896798,22.3176441 63.7583118,22.3899088 C63.6254292,22.4582029 63.4589256,22.4947324 63.2804145,22.4947324 C63.1611403,22.4947324 63.046669,22.4756735 62.9498088,22.4415265 C62.850547,22.4049971 62.7536867,22.3597324 62.6720359,22.3097029 C62.5911856,22.2596735 62.5183403,22.2024971 62.4599039,22.1429382 C62.4062706,22.0937029 62.3630437,22.0428794 62.3286223,21.9984088 L62.3286223,19.9734088 C62.4526995,19.8542912 62.5983901,19.7589971 62.7560882,19.6851441 C63.0346616,19.5533206 63.3556613,19.5231441 63.670257,19.6239971 C63.7911323,19.6644971 63.909606,19.7327912 64.0152717,19.8360265 C64.12494,19.9360853 64.2145957,20.0806147 64.2826381,20.2656441 C64.3530819,20.4546441 64.3915058,20.7039971 64.3915058,21.0113206 M64.92864,19.6748206 C64.8333808,19.5207618 64.726114,19.3849676 64.5964333,19.2809382 C64.4731566,19.1745265 64.3450769,19.0911441 64.2105933,19.0260265 C64.0753091,18.9601147 63.9376234,18.9164382 63.8023392,18.8886441 C63.6678556,18.8624382 63.5365739,18.8481441 63.4213021,18.8481441 C63.1691452,18.8481441 62.9353998,18.8949971 62.7336743,18.9847324 C62.5839811,19.0474676 62.4526995,19.1316441 62.3286223,19.2364676 L62.3286223,16.8636441 L61.5153162,16.8636441 L61.5153162,23.09985 L62.1501112,23.09985 L62.2621809,22.7321735 C62.2733879,22.7472618 62.2877969,22.7567912 62.2990038,22.7742618 C62.3606422,22.8417618 62.4366895,22.9044971 62.5335498,22.9719971 C62.6328115,23.0363206 62.7504847,23.0887324 62.8873699,23.1363794 C63.0250556,23.1816441 63.1867562,23.2022912 63.3652673,23.2022912 C63.6006137,23.2022912 63.8367607,23.1570265 64.0609001,23.0688794 C64.2826381,22.9791441 64.4811616,22.8354088 64.6596727,22.6527618 C64.8277773,22.4669382 64.9734679,22.2318794 65.0775327,21.9499676 C65.1815974,21.6744088 65.2344303,21.3345265 65.2344303,20.9597029 C65.2344303,20.6849382 65.2064129,20.44035 65.148777,20.2259382 C65.0935426,20.0147029 65.0198968,19.8312618 64.92864,19.6748206" id="Fill-41" fill="#FEFEFE" mask="url(#mask-2)"></path>
                    <polygon id="Fill-42" fill="#FEFEFE" mask="url(#mask-2)" points="65.8785911 23.1000882 66.6918972 23.1000882 66.6918972 18.954 65.8785911 18.954"></polygon>
                    <polygon id="Fill-43" fill="#FEFEFE" mask="url(#mask-2)" points="65.8785911 18.1852941 66.6918972 18.1852941 66.6918972 17.2990588 65.8785911 17.2990588"></polygon>
                    <polygon id="Fill-44" fill="#FEFEFE" mask="url(#mask-2)" points="67.6100685 23.1000882 68.427377 23.1000882 68.427377 16.8638824 67.6100685 16.8638824"></polygon>
                    <path d="M69.9273504,20.5258765 C69.9441608,20.4099353 69.9769812,20.3027294 70.0186071,20.1987 C70.0770435,20.0732294 70.1538913,19.9636412 70.2419461,19.8675529 C70.3308014,19.7738471 70.4348661,19.7007882 70.5581428,19.6483765 C70.7974918,19.5395824 71.104883,19.5395824 71.3178155,19.6444059 C71.4250823,19.6920529 71.5147381,19.7667 71.5907854,19.8556412 C71.6604287,19.9525235 71.7212666,20.0621118 71.754087,20.1899647 C71.7869074,20.2955824 71.8037179,20.4051706 71.8141243,20.5258765 L69.9273504,20.5258765 Z M72.5297696,19.9834941 C72.4465178,19.7214353 72.3312461,19.5070235 72.1775505,19.3370824 C72.0270568,19.1687294 71.8469448,19.0464353 71.6388153,18.9678176 C71.2153518,18.8066118 70.7038335,18.8097882 70.2619586,18.9900529 C70.0314151,19.0837588 69.8272881,19.2243176 69.6527795,19.4141118 C69.4774704,19.5967588 69.3341813,19.8342 69.227715,20.1073765 C69.1276528,20.3805529 69.0716179,20.7117 69.0716179,21.0841412 C69.0716179,21.4597588 69.1284533,21.7861412 69.240523,22.0537588 C69.3413858,22.3293176 69.4950814,22.5524647 69.6896024,22.7208176 C69.880121,22.8915529 70.1122654,23.0170235 70.3764298,23.0916706 C70.6357912,23.1663176 70.9127635,23.2028471 71.2129503,23.2028471 C71.4522992,23.2028471 71.6868451,23.1853765 71.9029796,23.1417 C72.1207151,23.1019941 72.3056302,23.0408471 72.4561238,22.9717588 L72.4969492,22.9471412 L72.4969492,22.2467294 L72.3960865,22.2832588 C72.2207774,22.3459941 72.0462688,22.3968176 71.8685582,22.4285824 C71.7028551,22.4627294 71.5019301,22.4825824 71.2905986,22.4825824 C71.0920751,22.4825824 70.9031575,22.4547882 70.7318509,22.4095235 C70.5621453,22.3594941 70.4116517,22.2832588 70.2859735,22.1832 C70.1650983,22.0783765 70.0642355,21.9417882 69.9929912,21.7789941 C69.9273504,21.6289059 69.8937294,21.4478471 69.884924,21.2413765 L72.6522458,21.2413765 L72.6522458,21.1651412 C72.6594503,21.0785824 72.6594503,21.0229941 72.6594503,20.9999647 L72.6594503,20.9149941 C72.6594503,20.5544647 72.6178244,20.2399941 72.5297696,19.9834941 L72.5297696,19.9834941 Z" id="Fill-45" fill="#FEFEFE" mask="url(#mask-2)"></path>
                    <path d="M58.7610424,22.4727353 C57.9461354,22.4727353 57.2913279,21.8183824 57.2913279,21.0044118 C57.2913279,20.1983824 57.9461354,19.5448235 58.7610424,19.5448235 C59.578351,19.5448235 60.2379614,20.1983824 60.2379614,21.0044118 C60.2379614,21.8183824 59.578351,22.4727353 58.7610424,22.4727353 M58.7610424,18.8396471 C57.5530908,18.8396471 56.5748821,19.8092647 56.5748821,21.0044118 C56.5748821,22.2082941 57.5530908,23.1810882 58.7610424,23.1810882 C59.9681935,23.1810882 60.9496042,22.2082941 60.9496042,21.0044118 C60.9496042,19.8092647 59.9681935,18.8396471 58.7610424,18.8396471" id="Fill-46" fill="#FEFEFE" mask="url(#mask-2)"></path>
                    <polygon id="Fill-47" fill="#FEFEFE" mask="url(#mask-2)" points="84.8527973 25.4117647 86.0535444 25.4117647 86.0535444 2.38235294 84.8527973 2.38235294"></polygon>
                </g>
            </g>
        </g>
    </g>
</svg>