<?xml version="1.0" encoding="UTF-8"?>
<svg width="272px" height="38px" viewBox="0 0 272 38" version="1.1" xmlns="http://www.w3.org/2000/svg" xmlns:xlink="http://www.w3.org/1999/xlink">
    <title>logo-light</title>
    <g id="中移-2-0926" stroke="none" stroke-width="1" fill="none" fill-rule="evenodd">
        <g id="中移-专家团队-专家人才库-详情-01基本信息" transform="translate(-24.000000, -17.000000)">
            <g id="编组-2" transform="translate(24.000000, 0.000000)">
                <g id="编组" transform="translate(0.000000, 17.000000)">
                    <g id="编组-3" transform="translate(0.000000, 5.000000)">
                        <g id="编组-2" transform="translate(0.000000, 3.394028)">
                            <g id="编组" fill="#0484D4">
                                <path d="M106.619575,3.88356814 C108.255795,3.88356814 109.705498,4.27299879 110.968685,5.0518601 C112.231071,5.83152768 113.16045,6.76599999 113.757622,7.8560833 L111.738764,9.03001918 C111.252862,8.15682374 110.566034,7.47310285 109.678281,6.98127531 C108.789727,6.48783523 107.770692,6.24192147 106.619575,6.24192147 C104.968146,6.24192147 103.613703,6.75390587 102.555443,7.77706839 C101.497984,8.80103718 100.968855,10.1144586 100.968855,11.7181388 C100.968855,13.3218191 101.497984,14.6336279 102.555443,15.6535654 C103.613703,16.6735028 104.968146,17.1830684 106.619575,17.1830684 C107.770692,17.1830684 108.789727,16.9371546 109.678281,16.4445208 C110.566034,15.951887 111.252862,15.2689724 111.738764,14.3957769 L113.757622,15.5801944 C113.16045,16.6702777 112.231071,17.60475 110.968685,18.3836113 C109.705498,19.1624726 108.255795,19.5519032 106.619575,19.5519032 C104.302131,19.5519032 102.37373,18.7891674 100.833571,17.2620833 C99.2934111,15.7358054 98.5233313,13.8862113 98.5233313,11.7124949 C98.5233313,9.53958475 99.2934111,7.69160327 100.833571,6.16855048 C102.37373,4.64549768 104.302131,3.88356814 106.619575,3.88356814 Z M118.588232,4.19761212 L123.91555,16.1982039 L129.242869,4.19761212 L132.697822,4.19761212 L132.697822,19.2273777 L130.522867,19.2273777 L130.522867,6.47291915 L124.86254,19.2273777 L122.978967,19.2273777 L117.318641,6.47291915 L117.318641,19.2273777 L115.143686,19.2273777 L115.143686,4.19761212 L118.588232,4.19761212 Z M140.266937,4.19761212 C142.639615,4.19761212 144.581625,4.91116517 146.094568,6.33585246 C147.605909,7.76134603 148.363181,9.55369456 148.363181,11.712898 C148.363181,13.8712953 147.605909,15.6636438 146.094568,17.0891374 C144.581625,18.5146309 142.639615,19.2273777 140.266937,19.2273777 L133.982222,19.2273777 L133.982222,4.19761212 L140.266937,4.19761212 Z M161.580215,4.19817651 L161.580215,6.47267727 L156.075986,6.47267727 L156.075986,19.2271358 L153.651276,19.2271358 L153.651276,6.47267727 L148.147047,6.47267727 L148.147047,4.19817651 L161.580215,4.19817651 Z M140.266937,6.52452073 L136.323681,6.52452073 L136.323681,16.9109507 L140.266937,16.9109507 C141.987209,16.9109507 143.359264,16.4465365 144.382301,15.5169018 C145.405338,14.5880734 145.917658,13.321416 145.917658,11.7177357 C145.917658,10.1140554 145.405338,8.84820425 144.382301,7.91856959 C143.359264,6.9897412 141.987209,6.52452073 140.266937,6.52452073 Z" id="形状结合"></path>
                                <path d="M231.723274,4.09577963 L233.196992,4.67629737 L232.668663,5.51562927 L236.928917,5.51562927 L236.928917,6.99998089 C236.373371,7.69821473 235.785805,8.32791522 235.167019,8.88746982 C234.547433,9.44621815 233.826984,9.96223392 233.004872,10.4355171 L233.757341,10.822529 C233.586835,11.0910184 233.421132,11.339351 233.261032,11.5643016 L237.280336,11.5643016 L237.280336,13.1454062 C236.864877,13.7799443 236.391782,14.3822315 235.863453,14.9522677 C235.335124,15.5223038 234.710735,16.0681518 233.989486,16.5890052 C233.269037,17.1114712 232.425311,17.6105552 231.459109,18.0894823 C230.492907,18.5676032 229.369808,19.0336299 228.088209,19.4851437 L227.33574,18.0491686 C229.651583,17.3396469 231.366251,16.6083558 232.476543,15.8552953 C233.586835,15.103041 234.547433,14.2048511 235.359139,13.1615317 L231.996244,13.1615317 L231.451104,13.7428557 L231.932204,14.1298675 C232.145137,14.3128919 232.334855,14.4741468 232.500558,14.6136323 C232.666261,14.7531178 232.807149,14.8821218 232.924822,15.0006442 L231.787314,16.1624859 C231.670441,16.0326757 231.525551,15.8851274 231.355044,15.7182286 C231.184538,15.552136 230.992419,15.3666928 230.778685,15.1618991 L230.346416,14.7748873 C230.090257,14.9901626 229.826092,15.2054379 229.553122,15.419907 C229.280952,15.6351823 228.990371,15.8504576 228.680578,16.0649267 L227.57509,14.8716402 C228.441229,14.2911225 229.204104,13.6993169 229.866117,13.0970297 C230.528129,12.4947426 231.136508,11.8392413 231.691254,11.1289133 C231.285401,11.3232255 230.858735,11.5110875 230.409656,11.6941118 C229.962177,11.8771362 229.481077,12.0593543 228.969558,12.2423786 L228.136239,10.8386545 C229.684404,10.3766591 231.015633,9.83322998 232.132329,9.20997968 C233.247423,8.58592311 234.18961,7.85463201 234.95889,7.01610638 L231.499935,7.01610638 L231.098885,7.45149469 L231.515144,7.75787905 C231.71767,7.90865241 231.894581,8.04813792 232.043473,8.17714186 C232.193167,8.30614581 232.321246,8.41418661 232.428513,8.49965172 L231.242975,9.59618523 C231.018835,9.38171618 230.709042,9.10193888 230.314396,8.7576596 L229.994197,8.48352623 C229.85491,8.6020486 229.713222,8.71734587 229.569932,8.83022432 C229.425843,8.94310277 229.278551,9.05920632 229.128858,9.17692242 L228.024169,7.98363595 C228.856688,7.42488762 229.58274,6.7927683 230.202326,6.08808427 C230.821112,5.3842065 231.328628,4.7198362 231.723274,4.09577963 Z M262.63301,4.01515216 L264.314858,4.59647618 C264.229205,4.78998209 264.152357,4.97542526 264.082714,5.15280568 C264.01307,5.3301861 263.935422,5.5051477 263.850569,5.6768842 L270,5.6768842 C270,6.66618318 269.995197,7.66112609 269.984791,8.66090665 C269.973584,9.66149348 269.960776,10.6266042 269.943965,11.5570452 C269.928756,12.4866798 269.906342,13.3606815 269.879925,14.178244 C269.853509,14.9950002 269.824691,15.7101658 269.792671,16.3229346 C269.760651,16.893777 269.698212,17.3501285 269.607756,17.6944077 C269.517299,18.038687 269.386017,18.3071765 269.215511,18.5006824 C269.044205,18.6941883 268.836075,18.8288362 268.591122,18.9038197 C268.345369,18.9796095 268.046783,19.0336299 267.694564,19.0658809 C267.213464,19.1086135 266.778793,19.1408644 266.38895,19.1626339 C265.998307,19.183597 265.63328,19.1948848 265.292267,19.1948848 L264.875207,17.2912704 C265.163387,17.301752 265.507601,17.3154586 265.908651,17.3315841 C266.3089,17.3477096 266.679531,17.3444845 267.021344,17.3235214 C267.224671,17.3235214 267.387172,17.3098147 267.509649,17.2832077 C267.632125,17.2566006 267.731387,17.1969363 267.805833,17.1058272 C267.88108,17.0147182 267.936314,16.8744264 267.973938,16.6857582 C268.011561,16.4987024 268.040379,16.2318255 268.061993,15.8875463 C268.083606,15.511016 268.104419,15.035314 268.126833,14.4604401 C268.147646,13.88476 268.166057,13.2340964 268.182868,12.5084492 C268.198077,11.7819958 268.209284,10.9894278 268.214888,10.1291328 C268.219691,9.26883773 268.217289,8.36581013 268.206883,7.4192437 L262.96922,7.4192437 C262.84114,7.65548217 262.707457,7.88204534 262.568971,8.0965144 C262.429684,8.31178973 262.286394,8.52706506 262.136701,8.74153411 L266.781195,8.74153411 L266.781195,16.7107527 L260.951963,16.7107527 L260.951963,10.2903877 L260.727023,10.5483956 L259.366175,9.54861503 L259.366175,16.0810522 C259.462235,15.9842992 259.55029,15.895609 259.63034,15.8149815 C259.71039,15.7343541 259.788038,15.6513078 259.862484,15.5650364 C259.936931,15.478765 260.012178,15.387656 260.087425,15.290903 C260.16107,15.1941501 260.241921,15.0869155 260.326774,14.9683932 L260.887923,16.5978742 C260.716617,16.7913801 260.522095,17.0010115 260.302759,17.2267684 C260.084223,17.4525253 259.856881,17.6758634 259.622335,17.8959764 C259.387789,18.1160894 259.150041,18.3289459 258.909891,18.5329334 C258.669741,18.7369208 258.448003,18.9151075 258.245477,19.0658809 L257.252058,17.8879136 C257.444178,17.7153709 257.569856,17.5516971 257.628293,17.3960861 C257.687529,17.2404751 257.726754,17.017137 257.748367,16.7268782 L257.748367,10.9999094 L256.17939,10.9999094 L256.17939,9.29060714 L259.366175,9.29060714 L259.366175,9.48330678 C259.675968,9.12854594 259.990564,8.72863372 260.310764,8.28195757 C260.630963,7.83608769 260.935153,7.37086722 261.224133,6.88710244 C261.512312,6.40333765 261.778878,5.91392894 262.024631,5.41887631 C262.269584,4.92462996 262.472911,4.45699067 262.63301,4.01515216 Z M214.362939,4.17640709 L214.362939,7.04835736 L219.856761,7.04835736 L219.856761,14.5975068 L214.362939,14.5975068 L214.362939,19.1626339 L212.457752,19.1626339 L212.457752,14.5975068 L207.011959,14.5975068 L207.011959,7.04835736 L212.457752,7.04835736 L212.457752,4.17640709 L214.362939,4.17640709 Z M227.847259,4.49972322 L228.537289,6.09614701 C227.960129,6.27917136 227.31893,6.45171413 226.614491,6.61216278 L226.614491,8.61253017 L228.376389,8.61253017 L228.376389,10.1936347 L226.614491,10.1936347 L226.614491,10.661274 C227.105997,11.1345572 227.55988,11.6078405 227.975339,12.0811237 C228.392399,12.5544069 228.702192,12.9301309 228.905518,13.2099082 L227.752,14.3717499 C227.612713,14.1669562 227.439805,13.9307177 227.231676,13.661422 C227.023546,13.3929325 226.817017,13.1349246 226.614491,12.8873983 L226.614491,19.1465084 L225.044713,19.1465084 L225.044713,13.4195396 C224.63886,14.49511 224.222601,15.4094254 223.795935,16.1624859 L222.531147,15.3070285 C223.011446,14.5330049 223.443716,13.6968981 223.827955,12.7987081 C224.212195,11.9005182 224.542801,11.0321604 224.820574,10.1936347 L222.995437,10.1936347 L222.995437,8.61253017 L225.044713,8.61253017 L225.044713,6.93547891 C224.767741,6.98949932 224.501175,7.0346507 224.244214,7.0725456 C223.988055,7.11044051 223.747905,7.1394664 223.523766,7.16042954 L223.027456,5.53175476 C223.880788,5.42452024 224.706102,5.28745355 225.501798,5.1205547 C226.297494,4.95365585 227.07878,4.74644326 227.847259,4.49972322 Z M245.624814,3.95145647 L247.274642,4.53197421 L246.810353,5.48337829 L253.376844,5.48337829 L253.376844,7.01610638 C253.22635,7.26282642 253.090265,7.48052057 252.967789,7.66918884 C252.845313,7.85705083 252.724437,8.0295936 252.607565,8.18520461 C252.489891,8.34162189 252.373019,8.48917015 252.255345,8.62865566 C252.137672,8.76894745 252.015196,8.91407688 251.886315,9.06404397 L250.333348,8.41902426 C250.557487,8.19326736 250.763216,7.97315438 250.950532,7.75787905 C251.137049,7.54260372 251.310757,7.32249074 251.470856,7.09592757 L249.06856,7.09592757 L248.9725,8.01588693 C248.961293,8.09087048 248.950086,8.16424147 248.94048,8.23358109 C248.929273,8.30372698 248.914064,8.3762917 248.89165,8.45127524 C249.254276,9.07533181 249.756989,9.59699151 250.397388,10.0162543 C250.803241,10.28555 251.305153,10.5427517 251.903126,10.790278 C252.501098,11.0378043 253.179121,11.2530796 253.937193,11.4352977 L253.216744,13.1292807 C252.383425,12.8495034 251.654171,12.5624696 251.029782,12.2665668 C250.405393,11.9706641 249.884268,11.6723424 249.468809,11.3707957 C248.978104,11.0160349 248.549837,10.5911281 248.187211,10.0968818 C247.974278,10.4298732 247.690902,10.7370638 247.338682,11.0160349 C246.932829,11.3603141 246.447727,11.6941118 245.880974,12.0158154 C245.315021,12.3391316 244.647406,12.6616414 243.879727,12.9841513 L252.287365,12.9841513 L252.287365,18.8554432 L241.205261,18.8554432 L241.205261,12.9841513 L243.111249,12.9841513 L242.422019,11.5481761 C243.254538,11.3232255 243.96458,11.0676365 244.551346,10.7822152 C245.139712,10.4976003 245.604001,10.2202418 245.945814,9.95175235 C246.639046,9.40348559 247.034493,8.74717803 247.130553,7.98363595 L247.226612,7.09592757 L245.945814,7.09592757 C245.731281,7.45149469 245.50474,7.79254886 245.26459,8.12070264 C245.02444,8.44885642 244.754672,8.7737851 244.456086,9.09629495 L243.111249,8.06426341 C243.654787,7.4732641 244.138288,6.82501929 244.560151,6.12033525 C244.981213,5.41645749 245.336635,4.69242286 245.624814,3.95145647 Z M250.414198,14.7265108 L243.062418,14.7265108 L243.062418,17.178392 L250.414198,17.178392 L250.414198,14.7265108 Z M265.147377,13.4840416 L262.585781,13.4840416 L262.585781,15.0643398 L265.147377,15.0643398 L265.147377,13.4840416 Z M242.470049,7.99976144 L243.863717,9.08016946 C243.692411,9.34946519 243.48348,9.65020563 243.239328,9.98400333 C242.992775,10.317801 242.704595,10.6886874 242.373989,11.0966623 C242.043383,11.5054436 241.741595,11.8610107 241.469426,12.1617511 C241.197256,12.4624916 240.948301,12.7213057 240.724161,12.9357748 L239.427353,11.6296099 C239.875633,11.2313102 240.403962,10.661274 241.012341,9.91950136 C241.333341,9.54297111 241.612715,9.19385419 241.852865,8.87134433 C242.093815,8.5480282 242.299543,8.25776933 242.470049,7.99976144 Z M217.965983,8.87134433 L214.362939,8.87134433 L214.362939,12.7422689 L217.965983,12.7422689 L217.965983,8.87134433 Z M212.457752,8.87134433 L208.885926,8.87134433 L208.885926,12.7422689 L212.457752,12.7422689 L212.457752,8.87134433 Z M265.147377,10.3710152 L262.585781,10.3710152 L262.585781,11.8714923 L265.147377,11.8714923 L265.147377,10.3710152 Z M257.828417,4.35459379 C258.149417,4.66662207 258.544063,5.11249195 259.013956,5.69300969 C259.504661,6.26304586 259.867287,6.72504123 260.102634,7.08060835 L258.821836,8.27389482 C258.576083,7.88688299 258.223063,7.40311821 257.764377,6.82260047 C257.294485,6.24127645 256.910245,5.78976265 256.611659,5.46725279 L257.828417,4.35459379 Z M240.964311,4.14415611 C241.146024,4.26267848 241.350952,4.41909576 241.580695,4.6117954 C241.811239,4.80610759 242.064196,5.02702684 242.341969,5.27374688 C242.618942,5.52127319 242.864695,5.74703009 243.079229,5.95101758 C243.292161,6.15581134 243.473874,6.33802941 243.622767,6.50009061 L242.406009,7.8707575 C242.256316,7.68773316 242.079406,7.48938959 241.87768,7.27411426 C241.675154,7.05883894 241.434204,6.81695654 241.156431,6.54846709 C240.889865,6.27917136 240.646513,6.04777053 240.427977,5.85426462 C240.209441,5.66075871 240.009316,5.49466613 239.827603,5.35437434 L240.964311,4.14415611 Z" id="形状结合"></path>
                                <path d="M0,11.8882628 C1.11200478,13.4951681 2.12703714,14.9222743 3.68320662,16.6291577 C4.89836365,17.8909775 5.73008181,18.6375878 6.66746579,19.3938734 C9.18583472,21.4200416 11.770645,21.2547553 13.9752185,19.5381966 C15.2808319,18.5239031 17.5326347,16.45984 19.6099289,14.440122 C19.7460136,14.29338 19.9109164,14.2587102 20.0646121,14.3933581 C20.8667118,15.1843135 21.380632,15.8277207 21.380632,15.8277207 C20.6930036,16.5864251 17.9913205,19.1011957 15.8908119,20.8080791 C13.1066774,23.0745172 10.1528372,22.8406975 8.6374931,22.0408731 C7.49598195,21.4377796 5.71167034,20.425905 2.8907129,17.1048597 C1.46662571,15.429421 0.485214295,13.7338254 0.264276653,13.2831179 C0.193032268,13.1412136 0.152206834,12.9856026 0.129792871,12.8904622 C0.0259281636,12.4514456 0.00485202738,12.1072167 0.000805503466,11.9625408 Z M0.170057955,9.55982225 C0.663165157,10.2822443 3.54976349,14.1580065 6.81339671,16.6179505 C8.15823453,17.6306314 9.62394766,17.535491 10.8855336,16.4583081 C11.157218,16.2389036 12.4900594,15.062335 13.8635037,13.8007257 L14.2757346,13.4205638 C15.0299822,12.722121 15.7656406,12.0243351 16.3129148,11.4723057 C16.5546654,11.2231668 16.836441,11.1820468 17.0677851,11.3828092 C17.9667452,12.1302258 18.5647177,12.7954024 18.5647177,12.7954024 C17.728997,13.7500316 13.4799499,17.7257718 12.4457056,18.4852825 C10.7990798,19.6979196 9.14925193,19.4536184 7.71715974,18.665888 C6.46598027,17.9805546 3.20955154,15.2351894 0.145242496,10.7845534 C-0.0156577441,10.5402522 0.0459806561,10.254831 0.0459806561,10.2330616 L0.0459806561,10.2330616 L0.0816550072,10.0196587 C0.125022491,9.77443066 0.170057955,9.55982225 0.170057955,9.55982225 Z M10.2256025,4.12238669 C11.8738293,2.90813708 13.5276596,3.1524383 14.9557493,3.94016862 C16.2069288,4.62630834 19.4649585,7.36925467 22.5252651,11.8231158 C22.6901678,12.0658045 22.6261279,12.3552571 22.6261279,12.3689637 C22.578098,12.6922799 22.5052526,13.0494595 22.5052526,13.0494595 C22.0113449,12.3238123 19.1215446,8.45127524 15.8611134,5.98810621 C14.515475,4.97461899 13.0497619,5.06975939 11.791378,6.14532977 C11.3390962,6.5097659 7.99861509,9.47766286 6.36399673,11.1361698 C6.11984463,11.3828898 5.83646809,11.4248161 5.60432346,11.2232475 C4.70296192,10.4758309 4.10819138,9.80823546 4.10819138,9.80823546 C4.93910904,8.85925021 9.19295916,4.88028485 10.2256025,4.12238669 Z M6.7859396,1.7987838 C9.5684731,-0.471685588 12.5247148,-0.233834569 14.0360564,0.567602425 C15.176767,1.16908331 16.9618791,2.18176426 19.7828366,5.50119696 C21.2101258,7.17663566 22.1883352,8.87223123 22.4124748,9.32616385 C22.4813177,9.46081172 22.5245446,9.61964782 22.5437566,9.71640078 C22.6662329,10.2880495 22.6742379,10.7186002 22.6742379,10.7186002 C21.5583427,9.10927598 20.5473128,7.68458868 18.9911434,5.97609272 C17.7735848,4.71507918 16.9434677,3.96685631 16.0060837,3.2105707 C13.4821113,1.18601507 10.8997024,1.35130138 8.69512901,3.06866636 C7.39271762,4.08295986 5.13771277,6.14621667 3.06362062,8.16593465 C2.92753584,8.3134829 2.76263311,8.34654016 2.60493487,8.21431112 C1.80443616,7.42093688 1.29371799,6.78075481 1.29371799,6.78075481 C1.97654338,6.0212441 4.6846305,3.50486094 6.7859396,1.7987838 Z" id="形状结合"></path>
                                <path d="M70.2618046,15.8870625 C70.7036799,15.7040381 71.2151985,15.7008131 71.6386624,15.8644868 C71.846792,15.944308 72.0269042,16.0684743 72.177398,16.2394045 C72.3310937,16.4119473 72.4463656,16.6296414 72.5296174,16.8957121 C72.6176723,17.1561388 72.6592982,17.4754235 72.6592982,17.8414722 L72.6592982,17.8414722 L72.6591856,17.9514531 C72.6588479,17.9813105 72.6574971,18.0295358 72.6520937,18.0954487 L72.6520937,18.0954487 L72.6520937,18.1728511 L69.8847697,18.1728511 C69.8935752,18.3824825 69.9271961,18.5663131 69.992837,18.718699 C70.0640814,18.8839853 70.1649442,19.0226646 70.2858196,19.1290928 C70.4114978,19.2306834 70.5619916,19.3080858 70.7316973,19.3588811 C70.9030041,19.4048388 71.0919217,19.4330584 71.2904454,19.4330584 C71.5017771,19.4330584 71.7027023,19.4129015 71.8684055,19.3782317 C72.0461162,19.3459807 72.2206249,19.2943791 72.3959341,19.2306834 L72.3959341,19.2306834 L72.496797,19.1935948 L72.496797,19.904729 L72.4559715,19.9297235 C72.3054778,19.9998694 72.1205626,20.0619526 71.9028269,20.1022663 C71.6866923,20.1466114 71.4521462,20.1643495 71.2127971,20.1643495 C70.91261,20.1643495 70.6356375,20.1272608 70.3762759,20.051471 C70.1121113,19.9756812 69.8799667,19.8482898 69.689448,19.6749408 C69.4949268,19.5040105 69.3412311,19.2774474 69.2403682,18.9976701 C69.1282984,18.7259555 69.071463,18.3945766 69.071463,18.0132087 C69.071463,17.6350659 69.1274979,17.2988494 69.2275603,17.0214909 C69.3340266,16.7441324 69.4773159,16.5030563 69.6526251,16.3176132 C69.8271338,16.1249135 70.031261,15.9822029 70.2618046,15.8870625 Z M45.9279248,15.74282 C46.3449846,15.74282 46.6916005,15.8234474 46.9613686,15.971802 C47.2327377,16.1249941 47.4312613,16.3297879 47.5473336,16.5829581 C47.5969646,16.6821299 47.628184,16.7901707 47.6465955,16.9046617 C47.6674085,17.0183464 47.6746129,17.1417065 47.6746129,17.2739355 L47.6746129,17.2739355 L47.6746129,20.0596144 L46.9805806,20.0596144 L46.9229447,19.6919532 C46.8853212,19.7290418 46.8444958,19.7612928 46.8036703,19.7975751 C46.7188175,19.8669148 46.6163537,19.9298042 46.5034833,19.9846308 C46.395416,20.037845 46.2721392,20.0846089 46.1416579,20.1144411 C46.0095756,20.1483046 45.8630844,20.1636238 45.7165931,20.1636238 C45.5124659,20.1636238 45.3227477,20.1337917 45.1538425,20.0733211 C44.9817353,20.0120442 44.8328425,19.9209352 44.7071642,19.7991877 C44.5814859,19.6806653 44.4870271,19.5315045 44.4141817,19.3613806 C44.3469398,19.1896441 44.3093164,18.9969444 44.3093164,18.7824754 C44.3093164,18.5704251 44.3517428,18.3728878 44.4261892,18.2051827 C44.5054386,18.0407027 44.6111044,17.8915419 44.7495907,17.7746321 C44.8880769,17.6577222 45.0537802,17.5682257 45.2434984,17.5037238 C45.4324161,17.4424469 45.6437477,17.4110022 45.8678874,17.4110022 C46.084022,17.4126147 46.2809447,17.4351904 46.4674609,17.4706665 C46.6131517,17.495661 46.7444334,17.5254932 46.8613063,17.5682257 L46.8613063,17.5682257 L46.8613063,17.3900391 C46.8613063,17.2876422 46.8549023,17.1941143 46.8428948,17.1134869 C46.8276853,17.0344719 46.8100743,16.9667449 46.7796554,16.9086931 C46.7140145,16.7901707 46.6075482,16.685355 46.4610569,16.5998899 C46.3137651,16.5224875 46.104835,16.4781424 45.8454734,16.4781424 C45.6509522,16.4781424 45.464436,16.4999118 45.2891268,16.5353879 C45.1146181,16.5724766 44.9417104,16.6248844 44.7648001,16.6909989 L44.7648001,16.6909989 L44.6599348,16.7329252 L44.6599348,16.012922 L44.6999598,15.9903463 C44.7728051,15.9556765 44.854456,15.9226192 44.9513163,15.8911745 C45.0433737,15.8621486 45.1458375,15.8363478 45.2507029,15.8121596 C45.3515657,15.7911964 45.464436,15.7750709 45.5805083,15.7621706 C45.6925781,15.751689 45.8086505,15.74282 45.9279248,15.74282 Z M62.3284622,13.7281009 L62.3284622,16.1372495 C62.4525395,16.0308213 62.5838213,15.9453562 62.7335145,15.8816605 C62.9352402,15.7905514 63.1689858,15.7429812 63.4211429,15.7429812 C63.5364147,15.7429812 63.6676965,15.7574942 63.8021803,15.7841012 C63.9374646,15.8123208 64.0751504,15.8566659 64.2104346,15.9235867 C64.3449184,15.9897013 64.4729982,16.0743601 64.596275,16.1824009 C64.7259558,16.2880229 64.8332226,16.4258958 64.928482,16.5823131 C65.0197388,16.7411492 65.0933847,16.9273987 65.1486191,17.1418677 C65.206255,17.3595619 65.2342725,17.6078945 65.2342725,17.8868655 C65.2342725,18.2674271 65.1814396,18.6125127 65.0773747,18.89229 C64.9733099,19.1785175 64.8276191,19.4171748 64.6595144,19.605843 C64.4810032,19.7912862 64.2824795,19.9372219 64.0607414,20.0283309 C63.8366017,20.1178274 63.6004546,20.1637851 63.365108,20.1637851 C63.1865968,20.1637851 63.0248961,20.1428219 62.8872103,20.0968643 C62.750325,20.0484878 62.6326517,19.9952737 62.5333898,19.9299654 C62.4365295,19.8614321 62.3604821,19.7977364 62.2988437,19.729203 C62.2876367,19.711465 62.2732278,19.7017897 62.2620208,19.6864705 L62.2620208,19.6864705 L62.149951,20.0597756 L61.5151555,20.0597756 L61.5151555,13.7281009 L62.3284622,13.7281009 Z M58.7608796,15.7343541 C59.9680316,15.7343541 60.9494431,16.7188154 60.9494431,17.9322587 C60.9494431,19.1545711 59.9680316,20.1422575 58.7608796,20.1422575 C57.5529271,20.1422575 56.5747176,19.1545711 56.5747176,17.9322587 C56.5747176,16.7188154 57.5529271,15.7343541 58.7608796,15.7343541 Z M30.7374212,14.0444831 C31.9341668,14.0444831 33.0124385,14.7572298 33.4951392,15.8626324 L33.4951392,15.8626324 L33.5407677,15.9714794 L32.6770296,15.9714794 L32.6562166,15.9311657 C32.2519647,15.2514762 31.5187079,14.8338259 30.7374212,14.8338259 C29.5126582,14.8338259 28.5088328,15.8392504 28.5088328,17.0784945 C28.5088328,18.3185449 29.5126582,19.3247757 30.7374212,19.3247757 C31.5211094,19.3247757 32.2575682,18.8998689 32.6618201,18.2096979 L32.6618201,18.2096979 L32.6810321,18.1758343 L33.5479721,18.1758343 L33.4991417,18.2830688 C33.024446,19.3949216 31.9365683,20.1108935 30.7374212,20.1108935 C29.0779874,20.1108935 27.7235436,18.747483 27.7235436,17.0784945 C27.7235436,15.4054747 29.0779874,14.0444831 30.7374212,14.0444831 Z M68.4272217,13.7283428 L68.4272217,20.0600175 L67.6099125,20.0600175 L67.6099125,13.7283428 L68.4272217,13.7283428 Z M66.6917405,15.8504576 L66.6917405,20.0600175 L65.8784338,20.0600175 L65.8784338,15.8504576 L66.6917405,15.8504576 Z M41.8611512,15.7998236 C42.1581362,15.7208087 42.5399741,15.7264526 42.8481661,15.8256244 C43.0186723,15.8820636 43.1755701,15.9715601 43.3028494,16.091695 C43.4237247,16.2118299 43.525388,16.3714723 43.6022359,16.5649782 C43.6702783,16.7568716 43.7095027,16.9939163 43.7095027,17.2696622 L43.7095027,17.2696622 L43.7095027,20.0593725 L42.891393,20.0593725 L42.891393,17.3760905 C42.891393,17.0479367 42.8345576,16.810892 42.7112808,16.6738253 C42.591206,16.5399837 42.4239018,16.4690315 42.1885552,16.4690315 C41.9772235,16.4690315 41.7666923,16.5311147 41.5737722,16.6472182 C41.3768495,16.764128 41.2071438,16.9278018 41.063054,17.1269516 L41.063054,17.1269516 L41.063054,20.0593725 L40.2505478,20.0593725 L40.2505478,15.8506189 L40.9013532,15.8506189 L41.0102211,16.3327711 C41.0606525,16.2763319 41.1070814,16.2198927 41.1687198,16.1707099 C41.2583757,16.0884699 41.368044,16.0134864 41.4777123,15.9497907 C41.5953856,15.8836761 41.7234654,15.8361059 41.8611512,15.7998236 Z M39.3755227,15.8504576 L39.3755227,20.0600175 L38.5598145,20.0600175 L38.5598145,15.8504576 L39.3755227,15.8504576 Z M35.038981,13.7283428 L35.038981,16.2882648 C35.074203,16.2471447 35.1206319,16.2036059 35.1630583,16.1616796 C35.2599187,16.0778271 35.366385,16.0020373 35.4784548,15.9439855 C35.5945271,15.8827086 35.7218064,15.8351384 35.8482852,15.7996623 C36.1220558,15.72226 36.4486593,15.72226 36.7592528,15.8085313 C36.921754,15.8561015 37.0738487,15.9310851 37.2099335,16.0463824 C37.3516218,16.156842 37.4636916,16.3132593 37.5501455,16.5140217 C37.6398013,16.7091401 37.6806268,16.9647292 37.6806268,17.269501 L37.6806268,17.269501 L37.6806268,20.0600175 L36.8657191,20.0600175 L36.8657191,17.3759292 C36.8657191,17.0679323 36.8096842,16.834919 36.7008163,16.6873707 C36.5903475,16.5422413 36.4166393,16.4688703 36.1580782,16.4688703 C35.9459461,16.4688703 35.7362154,16.5309534 35.5376917,16.647057 C35.348774,16.7655793 35.1782678,16.9276405 35.038981,17.1267904 L35.038981,17.1267904 L35.038981,20.0600175 L34.2256744,20.0600175 L34.2256744,13.7283428 L35.038981,13.7283428 Z M51.2843818,14.1984815 L52.6388256,17.4743754 C52.7749104,17.8001103 52.9206012,18.1847033 53.0790999,18.6281544 C53.2496061,18.139552 53.4025014,17.7533464 53.5185737,17.4711503 L53.5185737,17.4711503 L54.870616,14.1984815 L55.9969177,14.1984815 L55.9969177,20.0592919 L55.14999,20.0592919 L55.14999,17.2228177 C55.14999,16.6914827 55.164399,16.0916144 55.188414,15.4482072 C55.0299152,15.881983 54.878621,16.2657697 54.7329302,16.6052113 L54.7329302,16.6052113 L53.2904316,20.0592919 L52.8669677,20.0592919 L51.4180651,16.6052113 C51.2707733,16.2464191 51.1178781,15.8626324 50.9665838,15.4482072 C50.9930003,16.0859704 51.0082097,16.6818074 51.0082097,17.2228177 L51.0082097,17.2228177 L51.0082097,20.0592919 L50.1580801,20.0592919 L50.1580801,14.1984815 L51.2843818,14.1984815 Z M63.670098,16.5307115 C63.355502,16.4283147 63.034502,16.4589531 62.7559285,16.5927947 C62.5982302,16.6677782 62.4525395,16.7645312 62.3284622,16.8854724 L62.3284622,16.8854724 L62.3284622,18.9414727 C62.3628836,18.9866241 62.4061106,19.0382257 62.459744,19.0882147 C62.5181804,19.1486853 62.5910258,19.2067371 62.6718761,19.2575324 C62.753527,19.3083277 62.8503873,19.3542853 62.9496492,19.391374 C63.0465095,19.4260438 63.1609808,19.4453944 63.2802551,19.4453944 C63.4587663,19.4453944 63.6252701,19.4083057 63.7581529,19.3389661 C63.8966391,19.2655951 64.01031,19.1664233 64.0999658,19.0358069 C64.1960257,18.9035778 64.2696715,18.7447417 64.3144995,18.557686 C64.3673324,18.3706303 64.3913473,18.1650302 64.3913473,17.9392733 C64.3913473,17.6272451 64.3529234,17.3740748 64.2824795,17.1821815 C64.2144371,16.9943195 64.1247813,16.8475775 64.0151129,16.7459869 C63.9094471,16.6411712 63.7909733,16.5718315 63.670098,16.5307115 Z M45.9615457,18.1358431 C45.7069871,18.1358431 45.5052614,18.1882509 45.3587702,18.2954855 C45.2234859,18.4019137 45.1538425,18.5575247 45.1538425,18.7824754 C45.1538425,18.8953538 45.1730545,18.9969444 45.2050744,19.0775719 C45.2434984,19.1598119 45.2931293,19.2291515 45.3499647,19.2815594 C45.4068001,19.3355798 45.4812465,19.3758935 45.5628974,19.4033068 C45.769426,19.4645837 46.0143786,19.4532959 46.2088998,19.3871813 C46.3225706,19.3484802 46.4266355,19.2984911 46.5146903,19.2436645 C46.6075482,19.1896441 46.6819945,19.139655 46.7452339,19.0832158 C46.7924634,19.0420958 46.8332888,19.0066197 46.8613063,18.9767875 L46.8613063,18.9767875 L46.8613063,18.2640408 C46.7540394,18.2358212 46.6339646,18.2084078 46.4994808,18.1818008 C46.3385806,18.1511623 46.1560669,18.1358431 45.9615457,18.1358431 Z M58.7608796,16.450326 C57.9459719,16.450326 57.291164,17.11389 57.291164,17.9322587 C57.291164,18.7586903 57.9459719,19.4230606 58.7608796,19.4230606 C59.5781888,19.4230606 60.2377997,18.7586903 60.2377997,17.9322587 C60.2377997,17.11389 59.5781888,16.450326 58.7608796,16.450326 Z M71.3176624,16.5514328 C71.1047297,16.4450045 70.7973382,16.4450045 70.5579891,16.5554642 C70.4347123,16.6086783 70.3306475,16.6828556 70.2417921,16.777996 C70.1537373,16.8755552 70.0768894,16.9868211 70.018453,17.1142125 C69.9768271,17.2198345 69.9440066,17.3286816 69.9271961,17.4463977 L69.9271961,17.4463977 L71.8139716,17.4463977 C71.8035651,17.3238439 71.7867546,17.212578 71.7539342,17.1053435 C71.7211137,16.9755333 71.6602758,16.8642674 71.5906324,16.7659019 C71.5145851,16.6755991 71.4249292,16.5998093 71.3176624,16.5514328 Z M39.3755227,14.1701813 L39.3755227,15.0699838 L38.5598145,15.0699838 L38.5598145,14.1701813 L39.3755227,14.1701813 Z M66.6917405,14.1701813 L66.6917405,15.0699838 L65.8784338,15.0699838 L65.8784338,14.1701813 L66.6917405,14.1701813 Z M69.9465682,1.27696285 L69.9465682,1.37855346 C69.9465682,2.06549945 69.9369622,2.75486427 69.9225532,3.43536007 L69.9225532,3.43536007 L72.7403087,3.43536007 L72.7387077,3.5393695 C72.6858748,6.1783064 72.6178324,8.34073499 72.5281765,9.95328427 C72.4473262,11.0022476 71.951017,11.5384202 71.0664659,11.5497081 L71.0664659,11.5497081 L69.8000769,11.5497081 C69.8000769,11.5497081 69.6840046,10.8095479 69.6263687,10.4951008 L69.6263687,10.4951008 L69.7373185,10.4953089 C69.7603617,10.495364 69.7864393,10.4954326 69.8150139,10.4955177 L70.0121253,10.4962502 C70.267014,10.4973908 70.5915854,10.4996284 70.8015008,10.5039699 C71.2641891,10.5039699 71.4883287,10.254831 71.5075407,9.72188345 C71.6084035,8.02064395 71.6732439,6.24280837 71.6948574,4.43352808 L71.6948574,4.43352808 L69.9065433,4.43352808 L69.8841293,6.17024365 C69.8841293,10.5910475 67.2120646,12.0004156 67.2120646,12.0004156 L67.2120646,12.0004156 L66.4283764,11.2328421 C66.4283764,11.2328421 67.2825085,10.7377895 67.7483988,10.0073047 C68.527284,8.80918055 68.8738999,7.77956784 68.8738999,5.76307496 L68.8738999,5.76307496 L68.8738999,4.43352808 L67.5242591,4.43352808 L67.5242591,3.43536007 L68.8867079,3.43536007 C68.8939124,2.76615212 68.8971144,2.08081867 68.8939124,1.37210326 L68.8939124,1.37210326 L68.8939124,1.27696285 L69.9465682,1.27696285 Z M32.8458547,1.25204897 L32.8458547,3.24677243 L36.9123882,3.24677243 L36.9123882,8.8213553 L32.8458547,8.8213553 L32.8458547,11.847304 L31.754775,11.847304 L31.754775,8.8213553 L27.7234635,8.8213553 L27.7234635,3.24677243 L31.754775,3.24677243 L31.754775,1.25204897 L32.8458547,1.25204897 Z M54.6933055,1.68501845 L54.8950312,2.64932292 L54.8950312,2.64932292 L54.8705082,2.65661594 C54.7636498,2.68762276 54.3037295,2.81358794 53.4157096,2.95893238 L53.4157096,2.95893238 L53.4157096,4.48359773 L54.8678143,4.48359773 L54.8678143,5.43016416 L53.4157096,5.43016416 L53.4157096,5.95585523 C53.4157096,5.95585523 54.6484776,6.96208598 55.1015599,7.36441702 L55.1015599,7.36441702 L55.1704028,7.42650017 L54.4835749,8.19891128 L54.4155325,8.12795911 C54.1041385,7.83366887 53.772732,7.52567195 53.4157096,7.19590562 L53.4157096,7.19590562 L53.4157096,11.8432727 L52.4495077,11.8432727 L52.4495077,7.60952452 C52.1309092,8.35452228 51.7522733,9.04308083 51.320004,9.65181818 C51.315668,9.6561855 51.1905622,9.52505389 51.046081,9.37058091 L50.8698926,9.18118755 C50.726134,9.02598669 50.6035577,8.89230747 50.6035577,8.89230747 C51.2775776,7.92558417 51.8987646,6.69682162 52.3046174,5.43016416 L52.3046174,5.43016416 L50.7972783,5.43016416 L50.7972783,4.48359773 L52.4495077,4.48359773 L52.4495077,3.03391593 C52.3674299,3.04896639 52.2820504,3.06354383 52.195709,3.07750684 L51.9361382,3.1174111 C51.5494717,3.17407823 51.190701,3.21543905 51.0730213,3.22860605 L51.032625,3.23306576 L50.9277596,2.27682404 C50.9277596,2.27682404 51.6450065,2.20829069 52.846555,2.04703576 C53.7799365,1.91803182 54.6933055,1.68501845 54.6933055,1.68501845 L54.6933055,1.68501845 Z M56.8347997,1.15634417 L57.7601762,1.51029874 L57.7137472,1.60785797 C57.6240914,1.78604466 57.5208271,1.96503763 57.4143607,2.13838668 L57.4143607,2.13838668 L60.7972683,2.13838668 L60.7972683,3.01400094 L60.7884628,3.04222055 C60.2793456,4.02587562 59.4740439,4.9006836 58.3253283,5.64406882 C58.15162,5.75049707 57.9779118,5.85853788 57.7937971,5.96012848 L57.7937971,5.96012848 L58.7535951,6.12138341 C58.7535951,6.12138341 58.6839517,6.38181012 58.5134455,6.61321094 L58.5134455,6.61321094 L61.1727021,6.61321094 L61.1654977,7.52026991 C60.0712159,11.6911286 54.6854606,11.8281953 54.6854606,11.8281953 L54.6854606,11.8281953 L54.3020218,10.984832 C54.3020218,10.984832 56.1399668,10.8985607 57.5128221,10.30353 C57.233448,10.0044021 56.9020416,9.64319104 56.5242062,9.29084902 L56.5242062,9.29084902 L57.2078321,8.69017442 C57.6385004,9.07799252 57.9899193,9.43114081 58.3509442,9.7907393 C59.2619117,9.23199098 59.9079142,8.30316259 60.0480015,7.55413345 L60.0480015,7.55413345 L57.893059,7.55413345 C57.893059,7.55413345 56.8203907,8.95382622 55.2570167,9.67463575 C54.9264108,9.41179022 54.5037474,8.95382622 54.5037474,8.95382622 C55.4827574,8.41442849 56.8940366,7.38965342 57.5376375,6.11170811 C57.0493333,6.33020854 55.9238321,6.83816157 55.3722885,7.0308612 C55.3562786,7.03650513 54.7478995,6.20201087 54.7478995,6.20201087 C55.6772785,5.92384612 56.4945877,5.60052999 57.2390515,5.19578012 C56.9564755,4.92325929 56.7059194,4.70314632 56.2760516,4.34354783 L56.2760516,4.34354783 L56.1968022,4.28146468 L56.8091837,3.613063 L56.8788271,3.66466458 C57.3607273,4.04845131 57.6849293,4.31694076 58.0595627,4.65073846 C58.6303183,4.27823958 59.1218245,3.73964812 59.6229367,3.08414684 L59.6229367,3.08414684 L56.7779643,3.08414684 C56.4129369,3.58484339 55.9310366,4.1089219 55.3458721,4.63138787 C55.0480866,4.44030078 54.5349669,4.04441993 54.5469744,4.03555091 C55.5139768,3.23492019 56.2760516,2.29399769 56.8011787,1.23535908 L56.8011787,1.23535908 L56.8347997,1.15634417 Z M48.743759,1.6358357 L48.743759,11.5675267 L39.4035401,11.5763958 L39.4035401,1.6358357 L48.743759,1.6358357 Z M67.8381347,5.01719029 L67.8381347,5.99358888 L65.4022171,5.99358888 C65.0540002,7.00788238 64.4176037,8.89940269 63.906085,9.74034714 L63.906085,9.74034714 L66.2187258,9.18885528 C66.0001896,8.63978225 65.7880575,8.15843629 65.5495089,7.62629503 L65.5495089,7.62629503 L65.5102844,7.53357344 L66.405242,7.1312424 L66.4468679,7.21751378 C66.8054913,8.00121274 67.2849901,9.0961337 67.601187,9.87257618 L67.601187,9.87257618 L66.6077682,10.2499127 L66.5029028,9.9959362 C66.1796245,10.045243 65.5636194,10.1887742 64.9278843,10.3467556 L64.5462595,10.4426402 C63.6604693,10.6674389 62.8430227,10.8892885 62.8430227,10.8892885 L62.8430227,10.8892885 L62.5516412,10.1886358 C62.5516412,10.1886358 62.695731,10.0781762 62.7957933,9.89353932 C63.6099005,8.39144966 64.2134765,6.55072466 64.3183419,5.99358888 L64.3183419,5.99358888 L62.5908657,5.99358888 L62.5908657,5.01719029 L67.8381347,5.01719029 Z M47.7463376,2.57756448 L40.4041635,2.57756448 L40.4041635,10.6233791 L47.7463376,10.6233791 L47.7463376,2.57756448 Z M47.0011534,3.41278438 L47.0011534,4.32629355 L44.5444229,4.32629355 L44.5444229,5.71227966 L46.7922232,5.71227966 L46.7922232,6.62337 L44.5444229,6.62337 L44.5444229,8.80918055 L47.1700586,8.80918055 L47.1700586,9.72268972 L40.9661936,9.72268972 L40.9661936,8.80918055 L43.5790214,8.80918055 L43.5790214,6.62337 L41.3312211,6.62337 L41.3312211,5.71227966 L43.5790214,5.71227966 L43.5790214,4.32629355 L41.1310964,4.32629355 L41.1310964,3.41278438 L47.0011534,3.41278438 Z M45.5808285,6.70617441 L45.6368634,6.76906383 C46.0171003,7.1641384 46.4253547,7.6317777 46.7007262,7.98411971 L46.7007262,7.98411971 L46.7607636,8.06313463 L45.9890829,8.65655276 L45.9242425,8.57834412 C45.5984395,8.13650562 45.2182026,7.66483496 44.9156141,7.34716275 L44.9156141,7.34716275 L44.8355642,7.26734156 L45.5808285,6.70617441 Z M35.8565304,4.22155847 L32.8458547,4.22155847 L32.8458547,7.84173161 L35.8565304,7.84173161 L35.8565304,4.22155847 Z M31.754775,4.22155847 L28.7769198,4.22155847 L28.7769198,7.84173161 L31.754775,7.84173161 L31.754775,4.22155847 Z M67.4177928,2.25424835 L67.4177928,3.23064694 L63.0278579,3.23064694 L63.0278579,2.25424835 L67.4177928,2.25424835 Z" id="形状结合"></path>
                            </g>
                            <path d="M180.986225,13.1913639 C181.931614,14.0339209 182.829774,14.9240481 183.375714,16.0592828 C183.518202,16.4132373 183.619065,16.7825111 183.344494,17.0856704 C182.925033,17.5371842 182.468749,17.9556407 182.006861,18.364422 C182.267824,18.0467497 182.118931,17.6661881 181.963634,17.2985269 C181.535367,16.4390381 180.88136,15.7359666 180.203337,15.0562771 C178.342978,13.3171427 176.024734,11.7021746 173.132532,10.9184756 C171.837325,10.5983846 170.426847,10.4621242 169.21169,11.0224851 C168.837056,11.7271691 168.919508,12.4923237 169.122034,13.2486094 C169.5495,14.6023445 170.493288,15.7456419 171.534737,16.747035 C172.612208,17.704083 173.805752,18.5667969 175.185011,19.3077633 C174.6863,19.7262198 173.471143,20.8896741 172.981238,21.3145809 C167.165615,17.4863889 166.830206,14.2935413 167.866852,12.3004304 C168.259897,11.6030028 168.893892,11.1160129 169.445435,10.561296 C170.022595,10.0001288 170.724632,9.5083013 171.74847,9.39542285 C173.446328,9.19869183 175.137782,9.68568172 176.815627,10.4355171 C178.434235,11.1934153 179.77427,12.1440131 180.986225,13.1913639" id="Fill-14" fill="#8CC41D"></path>
                            <path d="M188.889629,10.5084044 C189.409953,11.1389111 189.928676,11.8516579 190.120796,12.6281004 C190.251277,13.0014056 190.040746,13.3481036 189.736556,13.6472315 C189.337108,14.0398873 188.933656,14.4228677 188.511793,14.7985917 C188.541412,14.7437651 188.592644,14.6905509 188.626265,14.6284678 C188.799172,14.1148708 188.507791,13.539997 188.215609,13.0062432 C187.395098,11.7379732 186.316826,10.6632091 185.125684,9.65778461 C182.657746,7.54534505 178.905809,5.36759725 175.297961,5.16119094 C174.306143,5.09507642 173.131812,5.22891801 172.296091,5.68930083 C170.94565,8.17746437 173.259892,11.3985316 175.45566,13.2973083 C176.795694,14.4656003 178.34546,15.4879565 180.048921,16.4071096 C180.783779,16.7844462 181.60429,17.1263066 182.387178,17.2343474 C182.911505,17.3069121 183.36939,17.0529356 183.362185,17.0666423 C182.92031,17.5173498 182.476033,17.9422566 182.006941,18.3647445 C181.79721,18.5526065 181.449794,18.6912857 181.102377,18.6533908 C180.150584,18.595339 179.117141,18.0922236 178.2486,17.6423224 C176.617984,16.7280069 175.128256,15.7145197 173.831448,14.5647721 C172.030326,12.9336785 170.164363,10.5124357 170.452543,8.30485577 C170.518184,7.55260153 170.96166,6.76003355 171.544423,6.20934797 C172.010313,5.69413848 172.544246,5.23214311 173.069373,4.76611636 C173.780216,4.1194841 175.026592,3.73972875 176.173707,3.7381162 C179.46856,3.68651462 183.169265,5.5820663 185.635602,7.45987994 C186.849958,8.38306441 187.940237,9.39574536 188.889629,10.5084044" id="Fill-15" fill="#54C2F0"></path>
                            <path d="M22.1095661,13.9200749 C20.1099203,11.2521121 17.1168557,8.52609753 16.292342,7.85043938 C15.714382,7.37957499 15.1364219,7.13849887 14.5656663,7.14978671 C13.9989132,7.15543064 13.4505716,7.39005656 12.9606664,7.82060722 C12.8622051,7.90607233 12.7237188,8.03023862 12.5500106,8.18584963 C11.366073,9.19530548 7.69258443,12.5953656 7.60933257,12.6751868 C7.33155952,12.9356135 6.9745371,13.1113814 6.57348724,13.0952559 C6.21886632,13.0799367 5.82822295,12.9219069 5.43277659,12.5502143 C5.16060703,12.297044 3.90782656,11.3045199 2.44131293,9.64359418 C1.53754989,8.62204421 0.792285599,7.71417896 0.792285599,7.71417896 C0.792285599,7.71417896 0.63058486,8.05603941 0.53772701,8.29469671 C0.456876641,8.49304027 0.522517535,8.62043166 0.561741972,8.67445206 C1.04844518,9.38316747 3.28663956,12.0793499 6.37416307,14.7561817 C6.94091615,15.2455904 7.5284822,15.4648971 8.09763678,15.4568343 C8.66438986,15.4479653 9.21593347,15.2133394 9.70423768,14.7860138 C9.79789603,14.701355 9.94118529,14.5755762 10.1132925,14.4207714 C11.3012326,13.4121219 13.5274195,11.3553152 14.5816763,10.3732727 C14.8074169,10.1668664 14.9731202,10.0120617 15.061175,9.93062795 C15.3373471,9.66858869 15.6959705,9.49604592 16.0906163,9.51297769 C16.4460378,9.52426553 16.8206712,9.7032585 17.2289255,10.0547942 C17.8909379,10.6240241 18.9572022,11.6205796 20.2211897,12.9630269 C21.1569726,13.949907 21.865414,14.8738978 21.8758205,14.8851856 C21.8758205,14.8851856 22.0471272,14.5296185 22.1391846,14.2861236 C22.2136309,14.0885863 22.1471895,13.9716765 22.1095661,13.9200749" id="Fill-20" fill="#8CC41D"></path>
                        </g>
                        <polygon id="Fill-47" fill="#E7E7E7" points="84.8526546 25.8011114 86.0534026 25.8011114 86.0534026 2.4191468 84.8526546 2.4191468"></polygon>
                        <path d="M180.266016,0.025720523 C182.761171,-0.145209701 185.28034,0.550605315 187.747477,1.67293962 C194.629365,4.80370405 197.757714,10.5806619 197.786532,10.6282321 L197.786532,10.6282321 L195.495504,12.0940394 L194.600547,10.8507639 L193.052382,11.8666699 C189.007462,5.40437866 179.772909,1.68422746 175.880884,2.58322369 C175.021149,3.99742941 175.277308,5.21167902 175.868877,6.7605326 C176.749426,8.96650002 178.352024,10.7233725 180.157949,12.3060896 C181.662086,13.5695219 183.339931,14.6958876 185.169871,15.7190501 C186.367418,16.3576197 187.805914,17.0905233 189.139545,17.0832668 C189.445335,17.0776229 189.77354,16.9728072 189.95045,16.7881703 L189.948244,16.79 L189.597968,17.1596236 C189.357793,17.40395 189.108162,17.6420782 188.85458,17.8765277 L188.471929,18.225758 C188.207764,18.4910224 187.690642,18.6256702 187.25357,18.5748749 C186.148881,18.478122 184.957739,17.9080858 183.939505,17.3952951 C182.163999,16.4285718 180.534183,15.3554203 179.060465,14.1726154 C177.096842,12.5826418 175.439009,10.7685238 174.419974,8.52063014 C173.601865,6.63394748 173.554635,4.70291972 174.976321,3.13229672 C175.595907,2.47276406 176.261922,1.84870749 176.947149,1.24964543 C177.744445,0.562699434 178.981216,0.120860931 180.266016,0.025720523 Z M197.151016,13.9508092 L197.684148,14.7353145 L197.038145,15.2481051 L196.489804,14.4781128 L197.151016,13.9508092 Z M194.290594,11.9792258 L195.174344,13.1926692 L194.037636,13.9884623 L193.132272,12.7500244 L194.290594,11.9792258 Z M198.655873,10.6225881 C199.095347,11.1902055 199.484389,11.7263781 199.77417,12.2423939 L198.398113,13.2639439 L197.163744,11.6328503 L198.655873,10.6225881 Z" id="形状结合" fill="#0484D4"></path>
                    </g>
                </g>
            </g>
        </g>
    </g>
</svg>