<?xml version="1.0" encoding="UTF-8"?>
<svg width="32px" height="32px" viewBox="0 0 32 32" version="1.1" xmlns="http://www.w3.org/2000/svg" xmlns:xlink="http://www.w3.org/1999/xlink">
    <title>fav-ico</title>
    <g id="中移-2-0926" stroke="none" stroke-width="1" fill="none" fill-rule="evenodd">
        <g id="切图补充" transform="translate(-83.000000, -202.000000)">
            <g id="编组-3" transform="translate(83.000000, 202.000000)">
                <g id="编组-2" transform="translate(1.908094, 5.000000)">
                    <path d="M12.1098205,14.7918825 C12.9529771,15.5433271 13.7540116,16.3371978 14.2409149,17.3496706 C14.3679952,17.6653493 14.4579509,17.9946906 14.2130714,18.2650668 C13.8389698,18.6677549 13.4320271,19.0409604 13.020087,19.4055369 C13.2528296,19.1222171 13.1200378,18.7828086 12.9815345,18.4549055 C12.5995796,17.68836 12.0162951,17.0613172 11.4115927,16.4551279 C9.752409,14.9040599 7.68485486,13.4637311 5.10540971,12.7647797 C3.95026378,12.4793026 2.69231129,12.3577771 1.60855881,12.8575417 C1.27443749,13.4860227 1.34797273,14.1684351 1.52859815,14.8429376 C1.90983914,16.0502826 2.75156785,17.0699463 3.68039656,17.9630508 C4.64135232,18.8166056 5.70582858,19.5860274 6.93593762,20.2468672 C6.49115647,20.6200728 5.40740398,21.6577136 4.9704761,22.0366718 C-0.216257631,18.6224525 -0.515396163,15.7748728 0.409148942,13.9972927 C0.759690753,13.3752835 1.32512683,12.9409557 1.81702766,12.4462247 C2.3317744,11.945741 2.9578949,11.5070986 3.87101706,11.4064266 C5.38527201,11.2309697 6.89381549,11.6652975 8.39022209,12.3340473 C9.83379753,13.0099879 11.0289238,13.8577901 12.1098205,14.7918825" id="Fill-14" fill="#8CC41D"></path>
                    <path d="M19.1585667,12.3990527 C19.6226241,12.9613777 20.0852536,13.5970496 20.2565979,14.2895292 C20.3729692,14.6224659 20.1852044,14.9316728 19.9139093,15.1984536 C19.557656,15.5486484 19.1978331,15.8902141 18.8215896,16.2253081 C18.8480052,16.1764103 18.893697,16.1289506 18.9236823,16.073581 C19.0778921,15.6155234 18.81802,15.1028152 18.5574339,14.6267804 C17.8256511,13.4956585 16.8639814,12.5371171 15.8016469,11.6404172 C13.600587,9.7564124 10.2543763,7.8141617 7.03667377,7.63007574 C6.152109,7.57111071 5.10476717,7.69047895 4.35941961,8.10107693 C3.1550122,10.3201757 5.21899668,13.1929234 7.17731886,14.8863704 C8.37244512,15.9283257 9.7546222,16.8401264 11.2738747,17.6598842 C11.9292665,17.9964164 12.6610493,18.3013088 13.3592772,18.3976662 C13.8269043,18.462384 14.2352748,18.2358719 14.2288494,18.2480964 C13.8347575,18.6500654 13.4385239,19.0290236 13.0201583,19.4058245 C12.8331075,19.5733715 12.52326,19.6970543 12.2134124,19.6632572 C11.3645444,19.611483 10.442855,19.1627735 9.66823613,18.7615237 C8.21395167,17.9460804 6.88531967,17.0421895 5.72874587,16.0167732 C4.12239338,14.5620627 2.45821219,12.4026481 2.71522859,10.4337912 C2.77377121,9.76288417 3.16929089,9.05602285 3.68903517,8.56488726 C4.10454501,8.10539145 4.58073929,7.69335529 5.04908028,7.27772371 C5.68305407,6.70101691 6.79465,6.36232751 7.81771806,6.36088934 C10.7562722,6.31486785 14.0567912,8.00543852 16.2564232,9.68018931 C17.3394617,10.5035425 18.3118404,11.4067143 19.1585667,12.3990527" id="Fill-15" fill="#54C2F0"></path>
                    <path d="M11.4674937,0.0229391593 C13.6928274,-0.129507027 15.9395791,0.491064004 18.139925,1.49203141 C24.2776194,4.28424151 27.0676752,9.43649114 27.0933769,9.4789172 L27.0933769,9.4789172 L25.0500965,10.7862152 L24.2519178,9.67738487 L22.8711686,10.583433 C19.2636578,4.81996041 11.0277101,1.50209861 7.55656084,2.30387926 C6.78979524,3.56515572 7.01825427,4.64809891 7.54585182,6.0294627 C8.33117971,7.9968814 9.76047646,9.56376932 11.3711126,10.9753347 C12.7125954,12.1021421 14.209002,13.106705 15.8410561,14.0192248 C16.909102,14.5887408 18.1920422,15.2423897 19.381457,15.235918 C19.65418,15.2308844 19.9468931,15.1374032 20.1046726,14.9727326 C19.6955882,15.420723 19.2429537,15.8421073 18.7860357,16.2548625 C18.5504373,16.4914417 18.0892357,16.6115291 17.6994275,16.5662267 C16.7141979,16.4799364 15.6518635,15.9715427 14.7437389,15.5142042 C13.1602323,14.6520203 11.7066618,13.6949171 10.3923084,12.6400183 C8.64102726,11.2219811 7.16246902,9.60403812 6.25363048,7.59922696 C5.52398948,5.91656623 5.48186734,4.19435578 6.74981491,2.79357668 C7.30240017,2.20536451 7.89639363,1.64879211 8.50752151,1.11451138 C9.21860022,0.50185029 10.3216289,0.107791282 11.4674937,0.0229391593 Z M26.5265843,12.4421978 L27.0020647,13.1418683 L26.4259196,13.5992068 L25.9368745,12.9124799 L26.5265843,12.4421978 Z M23.9754824,10.6838173 L24.763666,11.7660414 L23.7498791,12.4757791 L22.9424192,11.3712633 L23.9754824,10.6838173 Z M27.8687097,9.4738836 C28.2606597,9.98011999 28.6076318,10.458312 28.8660761,10.9185269 L27.6388228,11.8296086 L26.5379359,10.3748981 L27.8687097,9.4738836 Z" id="形状结合" fill="#0484D4"></path>
                </g>
            </g>
        </g>
    </g>
</svg>